<?xml version="1.0" encoding="UTF-8" standalone="no"?>
<!DOCTYPE svg PUBLIC "-//W3C//DTD SVG 1.1//EN"
 "http://www.w3.org/Graphics/SVG/1.1/DTD/svg11.dtd">
<!-- Generated by graphviz version 2.40.1 (20161225.0304)
 -->
<!-- Title: BBP Pages: 1 -->
<svg width="495pt" height="175pt"
    viewBox="0.00 0.00 494.75 175.20" xmlns="http://www.w3.org/2000/svg" xmlns:xlink="http://www.w3.org/1999/xlink">
    <g id="graph0" class="graph" transform="scale(1 1) rotate(0) translate(4 171.2)">
        <title>BBP</title>
        <polygon fill="#ffffff" stroke="transparent" points="-4,4 -4,-171.2 490.7456,-171.2 490.7456,4 -4,4"/>
        <!-- Edition -->
        <g id="node1" class="node">
            <title>Edition</title>
            <path fill="#ffff00" stroke="#000000" d="M12,-25.3C12,-25.3 101.8016,-25.3 101.8016,-25.3 107.8016,-25.3 113.8016,-31.3 113.8016,-37.3 113.8016,-37.3 113.8016,-59.7 113.8016,-59.7 113.8016,-65.7 107.8016,-71.7 101.8016,-71.7 101.8016,-71.7 12,-71.7 12,-71.7 6,-71.7 0,-65.7 0,-59.7 0,-59.7 0,-37.3 0,-37.3 0,-31.3 6,-25.3 12,-25.3"/>
            <text text-anchor="middle" x="56.9008" y="-38.9" font-family="Arial" font-size="32.00" fill="#0000ff">Edition</text>
        </g>
        <!-- EditionOfProp -->
        <g id="node6" class="node">
            <title>EditionOfProp</title>
            <text text-anchor="middle" x="190.2576" y="-43.7" font-family="Arial" font-size="16.00" fill="#000000">edition of</text>
        </g>
        <!-- Edition&#45;&gt;EditionOfProp -->
        <g id="edge3" class="edge">
            <title>Edition&#45;&gt;EditionOfProp</title>
            <path fill="none" stroke="#000000" d="M113.8429,-48.5C125.8777,-48.5 138.345,-48.5 149.6307,-48.5"/>
        </g>
        <!-- EditionCopy -->
        <g id="node2" class="node">
            <title>EditionCopy</title>
            <path fill="#ffff00" stroke="#000000" d="M278.7136,-120.3C278.7136,-120.3 368.5152,-120.3 368.5152,-120.3 374.5152,-120.3 380.5152,-126.3 380.5152,-132.3 380.5152,-132.3 380.5152,-154.7 380.5152,-154.7 380.5152,-160.7 374.5152,-166.7 368.5152,-166.7 368.5152,-166.7 278.7136,-166.7 278.7136,-166.7 272.7136,-166.7 266.7136,-160.7 266.7136,-154.7 266.7136,-154.7 266.7136,-132.3 266.7136,-132.3 266.7136,-126.3 272.7136,-120.3 278.7136,-120.3"/>
            <text text-anchor="middle" x="323.6144" y="-133.9" font-family="Arial" font-size="32.00" fill="#0000ff">Edition</text>
        </g>
        <!-- Copy -->
        <g id="node3" class="node">
            <title>Copy</title>
            <path fill="#ffff00" stroke="#000000" d="M23.5616,-120.3C23.5616,-120.3 90.24,-120.3 90.24,-120.3 96.24,-120.3 102.24,-126.3 102.24,-132.3 102.24,-132.3 102.24,-154.7 102.24,-154.7 102.24,-160.7 96.24,-166.7 90.24,-166.7 90.24,-166.7 23.5616,-166.7 23.5616,-166.7 17.5616,-166.7 11.5616,-160.7 11.5616,-154.7 11.5616,-154.7 11.5616,-132.3 11.5616,-132.3 11.5616,-126.3 17.5616,-120.3 23.5616,-120.3"/>
            <text text-anchor="middle" x="56.9008" y="-133.9" font-family="Arial" font-size="32.00" fill="#0000ff">Copy</text>
        </g>
        <!-- CopyOfProp -->
        <g id="node5" class="node">
            <title>CopyOfProp</title>
            <text text-anchor="middle" x="190.2576" y="-138.7" font-family="Arial" font-size="16.00" fill="#000000">copy of</text>
        </g>
        <!-- Copy&#45;&gt;CopyOfProp -->
        <g id="edge1" class="edge">
            <title>Copy&#45;&gt;CopyOfProp</title>
            <path fill="none" stroke="#000000" d="M102.4217,-143.5C120.0779,-143.5 139.9422,-143.5 156.3082,-143.5"/>
        </g>
        <!-- WorkTypes -->
        <g id="node4" class="node">
            <title>WorkTypes</title>
            <path fill="#ffff00" stroke="#000000" d="M290.2912,-55.3C290.2912,-55.3 356.9376,-55.3 356.9376,-55.3 362.9376,-55.3 368.9376,-61.3 368.9376,-67.3 368.9376,-67.3 368.9376,-89.7 368.9376,-89.7 368.9376,-95.7 362.9376,-101.7 356.9376,-101.7 356.9376,-101.7 290.2912,-101.7 290.2912,-101.7 284.2912,-101.7 278.2912,-95.7 278.2912,-89.7 278.2912,-89.7 278.2912,-67.3 278.2912,-67.3 278.2912,-61.3 284.2912,-55.3 290.2912,-55.3"/>
            <text text-anchor="middle" x="323.6144" y="-68.9" font-family="Arial" font-size="32.00" fill="#0000ff">Work</text>
        </g>
        <!-- CopyOfProp&#45;&gt;EditionCopy -->
        <g id="edge2" class="edge">
            <title>CopyOfProp&#45;&gt;EditionCopy</title>
            <path fill="none" stroke="#000000" d="M223.9092,-143.5C233.8338,-143.5 245.0645,-143.5 256.3187,-143.5"/>
            <polygon fill="#000000" stroke="#000000" points="256.624,-147.0001 266.6239,-143.5 256.6239,-140.0001 256.624,-147.0001"/>
        </g>
        <!-- EditionOfProp&#45;&gt;WorkTypes -->
        <g id="edge4" class="edge">
            <title>EditionOfProp&#45;&gt;WorkTypes</title>
            <path fill="none" stroke="#000000" d="M230.9937,-57.664C242.719,-60.3017 255.7124,-63.2247 268.1674,-66.0266"/>
            <polygon fill="#000000" stroke="#000000" points="267.4818,-69.4598 278.0062,-68.24 269.0182,-62.6305 267.4818,-69.4598"/>
        </g>
        <!-- RankProp -->
        <g id="node7" class="node">
            <title>RankProp</title>
            <text text-anchor="middle" x="323.6144" y="-13.7" font-family="Arial" font-size="16.00" fill="#000000">rank</text>
        </g>
        <!-- EditionOfProp&#45;&gt;RankProp -->
        <g id="edge5" class="edge">
            <title>EditionOfProp&#45;&gt;RankProp</title>
            <path fill="none" stroke="#000000" d="M230.9937,-39.336C252.2877,-34.5457 277.7637,-28.8146 296.6026,-24.5766"/>
        </g>
        <!-- Rank -->
        <g id="node8" class="node">
            <title>Rank</title>
            <polygon fill="none" stroke="#000000" points="416.5152,-.5 416.5152,-36.5 486.7456,-36.5 486.7456,-.5 416.5152,-.5"/>
            <text text-anchor="middle" x="451.6304" y="-14.1" font-family="Arial" font-size="16.00" fill="#000000">number</text>
        </g>
        <!-- RankProp&#45;&gt;Rank -->
        <g id="edge6" class="edge">
            <title>RankProp&#45;&gt;Rank</title>
            <path fill="none" stroke="#000000" d="M350.7633,-18.5C366.8642,-18.5 387.6853,-18.5 406.2258,-18.5"/>
            <polygon fill="#000000" stroke="#000000" points="406.247,-22.0001 416.2469,-18.5 406.2469,-15.0001 406.247,-22.0001"/>
        </g>
    </g>
</svg>