<?xml version="1.0" encoding="UTF-8" standalone="no"?>
<!DOCTYPE svg PUBLIC "-//W3C//DTD SVG 1.1//EN"
 "http://www.w3.org/Graphics/SVG/1.1/DTD/svg11.dtd">
<!-- Generated by graphviz version 2.40.1 (20161225.0304)
 -->
<!-- Title: Grafo Pages: 1 -->
<svg width="420pt" height="261pt"
    viewBox="0.00 0.00 420.00 261.00" xmlns="http://www.w3.org/2000/svg" xmlns:xlink="http://www.w3.org/1999/xlink">
    <g id="graph0" class="graph" transform="scale(1 1) rotate(0) translate(4 257)">
        <title>Grafo</title>
        <polygon fill="#ffffff" stroke="transparent" points="-4,4 -4,-257 416,-257 416,4 -4,4"/>
        <g id="clust1" class="cluster">
            <title>cluster_item</title>
            <polygon fill="none" stroke="transparent" points="8,-8 8,-245 404,-245 404,-8 8,-8"/>
        </g>
        <!-- item -->
        <g id="node1" class="node">
            <title>item</title>
            <path fill="#9ac0cd" stroke="#9ac0cd" d="M245,-196.5C245,-196.5 291,-196.5 291,-196.5 297,-196.5 303,-202.5 303,-208.5 303,-208.5 303,-224.5 303,-224.5 303,-230.5 297,-236.5 291,-236.5 291,-236.5 245,-236.5 245,-236.5 239,-236.5 233,-230.5 233,-224.5 233,-224.5 233,-208.5 233,-208.5 233,-202.5 239,-196.5 245,-196.5"/>
            <text text-anchor="start" x="244.673" y="-211.5" font-family="Arial" font-weight="bold" font-size="20.00" fill="#000000">Work</text>
        </g>
        <!-- contrib -->
        <g id="node2" class="node">
            <title>contrib</title>
            <path fill="#9ac0cd" stroke="#9ac0cd" d="M215.323,-123.5C215.323,-123.5 320.677,-123.5 320.677,-123.5 326.677,-123.5 332.677,-129.5 332.677,-135.5 332.677,-135.5 332.677,-147.5 332.677,-147.5 332.677,-153.5 326.677,-159.5 320.677,-159.5 320.677,-159.5 215.323,-159.5 215.323,-159.5 209.323,-159.5 203.323,-153.5 203.323,-147.5 203.323,-147.5 203.323,-135.5 203.323,-135.5 203.323,-129.5 209.323,-123.5 215.323,-123.5"/>
            <text text-anchor="start" x="211.323" y="-136.5" font-family="Arial" font-weight="bold" font-size="20.00" fill="#000000">Contribution</text>
            <text text-anchor="start" x="319.119" y="-136.5" font-family="Arial" font-size="20.00" fill="#000000"> </text>
        </g>
        <!-- item&#45;&gt;contrib -->
        <g id="edge1" class="edge">
            <title>item&#45;&gt;contrib</title>
            <path fill="none" stroke="#000000" d="M268,-196.4014C268,-188.2575 268,-178.7068 268,-169.875"/>
            <polygon fill="#000000" stroke="#000000" points="271.5001,-169.6016 268,-159.6016 264.5001,-169.6016 271.5001,-169.6016"/>
            <text text-anchor="middle" x="233.7812" y="-182.0753" font-family="Times,serif" font-size="14.00" fill="#000000">contribution</text>
        </g>
        <!-- org -->
        <g id="node3" class="node">
            <title>org</title>
            <path fill="#9ac0cd" stroke="#9ac0cd" d="M28,-16.5C28,-16.5 208,-16.5 208,-16.5 214,-16.5 220,-22.5 220,-28.5 220,-28.5 220,-74.5 220,-74.5 220,-80.5 214,-86.5 208,-86.5 208,-86.5 28,-86.5 28,-86.5 22,-86.5 16,-80.5 16,-74.5 16,-74.5 16,-28.5 16,-28.5 16,-22.5 22,-16.5 28,-16.5"/>
            <text text-anchor="start" x="86.325" y="-61.5" font-family="Arial" font-weight="bold" font-size="20.00" fill="#000000">Person</text>
            <text text-anchor="start" x="27.988" y="-30.5" font-family="Arial" font-size="20.00" fill="#000000">Hurston, Zora Neale</text>
        </g>
        <!-- contrib&#45;&gt;org -->
        <g id="edge2" class="edge">
            <title>contrib&#45;&gt;org</title>
            <path fill="none" stroke="#000000" d="M237.6453,-123.2872C222.5638,-114.2383 203.6956,-102.9174 185.4321,-91.9593"/>
            <polygon fill="#000000" stroke="#000000" points="186.9099,-88.7643 176.5342,-86.6205 183.3084,-94.7668 186.9099,-88.7643"/>
            <text text-anchor="middle" x="192.113" y="-109.2638" font-family="Times,serif" font-size="14.00" fill="#000000">agent</text>
        </g>
        <!-- fecha -->
        <g id="node4" class="node">
            <title>fecha</title>
            <polygon fill="#9ac0cd" stroke="#9ac0cd" points="237.764,-33.5 237.764,-69.5 298.236,-69.5 298.236,-33.5 237.764,-33.5"/>
            <text text-anchor="middle" x="268" y="-45.5" font-family="Arial" font-size="20.00" fill="#000000">1937</text>
        </g>
        <!-- contrib&#45;&gt;fecha -->
        <g id="edge3" class="edge">
            <title>contrib&#45;&gt;fecha</title>
            <path fill="none" stroke="#000000" d="M268,-123.2872C268,-110.8443 268,-94.1053 268,-79.9211"/>
            <polygon fill="#000000" stroke="#000000" points="271.5001,-79.6857 268,-69.6858 264.5001,-79.6858 271.5001,-79.6857"/>
            <text text-anchor="middle" x="256.3401" y="-100.4401" font-family="Times,serif" font-size="14.00" fill="#000000">date</text>
        </g>
        <!-- rol -->
        <g id="node5" class="node">
            <title>rol</title>
            <path fill="#9ac0cd" stroke="#9ac0cd" d="M328,-16.5C328,-16.5 384,-16.5 384,-16.5 390,-16.5 396,-22.5 396,-28.5 396,-28.5 396,-74.5 396,-74.5 396,-80.5 390,-86.5 384,-86.5 384,-86.5 328,-86.5 328,-86.5 322,-86.5 316,-80.5 316,-74.5 316,-74.5 316,-28.5 316,-28.5 316,-22.5 322,-16.5 328,-16.5"/>
            <text text-anchor="start" x="335.444" y="-61.5" font-family="Arial" font-weight="bold" font-size="20.00" fill="#000000">Role</text>
            <text text-anchor="start" x="327.656" y="-30.5" font-family="Arial" font-size="20.00" fill="#000000">author</text>
        </g>
        <!-- contrib&#45;&gt;rol -->
        <g id="edge4" class="edge">
            <title>contrib&#45;&gt;rol</title>
            <path fill="none" stroke="#000000" d="M285.8081,-123.2872C294.0524,-114.8555 304.2256,-104.4511 314.2434,-94.2057"/>
            <polygon fill="#000000" stroke="#000000" points="316.9919,-96.401 321.4805,-86.804 311.9868,-91.5072 316.9919,-96.401"/>
            <text text-anchor="middle" x="292.5966" y="-109.4142" font-family="Times,serif" font-size="14.00" fill="#000000">role</text>
        </g>
    </g>
</svg>