<?xml version="1.0" encoding="UTF-8" standalone="no"?>
<!DOCTYPE svg PUBLIC "-//W3C//DTD SVG 1.1//EN"
 "http://www.w3.org/Graphics/SVG/1.1/DTD/svg11.dtd">
<!-- Generated by graphviz version 2.40.1 (20161225.0304)
 -->
<!-- Title: G Pages: 1 -->
<svg 
    viewBox="0.00 0.00 340.00 320.80" xmlns="http://www.w3.org/2000/svg" xmlns:xlink="http://www.w3.org/1999/xlink">
    <g id="graph0" class="graph" transform="scale(1 1) rotate(0) translate(4 316.8)">
        <title>G</title>
        <polygon fill="#ffffff" stroke="transparent" points="-4,4 -4,-316.8 336,-316.8 336,4 -4,4"/>
        <g id="clust1" class="cluster">
            <title>cluster_0</title>
            <polygon fill="none" stroke="#0000ff" points="8,-8 8,-304.8 136,-304.8 136,-8 8,-8"/>
            <text text-anchor="middle" x="72" y="-288.2" font-family="Arial" font-size="14.00" fill="#000000">IFLA LRM (RDA)</text>
        </g>
        <g id="clust2" class="cluster">
            <title>cluster_1</title>
            <polygon fill="none" stroke="#0000ff" points="144,-81 144,-304.8 236,-304.8 236,-81 144,-81"/>
            <text text-anchor="middle" x="190" y="-288.2" font-family="Arial" font-size="14.00" fill="#000000">BIBFRAME</text>
        </g>
        <g id="clust3" class="cluster">
            <title>cluster_3</title>
            <polygon fill="none" stroke="#0000ff" points="244,-81 244,-304.8 324,-304.8 324,-81 244,-81"/>
            <text text-anchor="middle" x="284" y="-288.2" font-family="Arial" font-size="14.00" fill="#000000">BBP</text>
        </g>
        <!-- a0 -->
        <g id="node1" class="node">
            <title>a0</title>
            <path fill="#e0eeee" stroke="#e0eeee" d="M57,-235.5C57,-235.5 87,-235.5 87,-235.5 93,-235.5 99,-241.5 99,-247.5 99,-247.5 99,-259.5 99,-259.5 99,-265.5 93,-271.5 87,-271.5 87,-271.5 57,-271.5 57,-271.5 51,-271.5 45,-265.5 45,-259.5 45,-259.5 45,-247.5 45,-247.5 45,-241.5 51,-235.5 57,-235.5"/>
            <text text-anchor="middle" x="71.6616" y="-248.7" font-family="Arial" font-size="16.00" fill="#000000">Work</text>
        </g>
        <!-- a1 -->
        <g id="node2" class="node">
            <title>a1</title>
            <path fill="#e0eeee" stroke="#e0eeee" d="M36.4376,-162.5C36.4376,-162.5 107.5624,-162.5 107.5624,-162.5 113.5624,-162.5 119.5624,-168.5 119.5624,-174.5 119.5624,-174.5 119.5624,-186.5 119.5624,-186.5 119.5624,-192.5 113.5624,-198.5 107.5624,-198.5 107.5624,-198.5 36.4376,-198.5 36.4376,-198.5 30.4376,-198.5 24.4376,-192.5 24.4376,-186.5 24.4376,-186.5 24.4376,-174.5 24.4376,-174.5 24.4376,-168.5 30.4376,-162.5 36.4376,-162.5"/>
            <text text-anchor="middle" x="72" y="-175.7" font-family="Arial" font-size="16.00" fill="#000000">Expression</text>
        </g>
        <!-- a0&#45;&#45;a1 -->
        <g id="edge1" class="edge">
            <title>a0&#45;&#45;a1</title>
            <path fill="none" stroke="#000000" d="M72,-235.4551C72,-224.2241 72,-209.8298 72,-198.5904"/>
        </g>
        <!-- a2 -->
        <g id="node3" class="node">
            <title>a2</title>
            <path fill="#e0eeee" stroke="#e0eeee" d="M28.4336,-89.5C28.4336,-89.5 115.5664,-89.5 115.5664,-89.5 121.5664,-89.5 127.5664,-95.5 127.5664,-101.5 127.5664,-101.5 127.5664,-113.5 127.5664,-113.5 127.5664,-119.5 121.5664,-125.5 115.5664,-125.5 115.5664,-125.5 28.4336,-125.5 28.4336,-125.5 22.4336,-125.5 16.4336,-119.5 16.4336,-113.5 16.4336,-113.5 16.4336,-101.5 16.4336,-101.5 16.4336,-95.5 22.4336,-89.5 28.4336,-89.5"/>
            <text text-anchor="middle" x="72" y="-102.7" font-family="Arial" font-size="16.00" fill="#000000">Manifestation</text>
        </g>
        <!-- a1&#45;&#45;a2 -->
        <g id="edge2" class="edge">
            <title>a1&#45;&#45;a2</title>
            <path fill="none" stroke="#000000" d="M72,-162.4551C72,-151.2241 72,-136.8298 72,-125.5904"/>
        </g>
        <!-- a3 -->
        <g id="node4" class="node">
            <title>a3</title>
            <path fill="#e0eeee" stroke="#e0eeee" d="M57,-16.5C57,-16.5 87,-16.5 87,-16.5 93,-16.5 99,-22.5 99,-28.5 99,-28.5 99,-40.5 99,-40.5 99,-46.5 93,-52.5 87,-52.5 87,-52.5 57,-52.5 57,-52.5 51,-52.5 45,-46.5 45,-40.5 45,-40.5 45,-28.5 45,-28.5 45,-22.5 51,-16.5 57,-16.5"/>
            <text text-anchor="middle" x="71.5568" y="-29.7" font-family="Arial" font-size="16.00" fill="#000000">Item</text>
        </g>
        <!-- a2&#45;&#45;a3 -->
        <g id="edge3" class="edge">
            <title>a2&#45;&#45;a3</title>
            <path fill="none" stroke="#000000" d="M72,-89.4551C72,-78.2241 72,-63.8298 72,-52.5904"/>
        </g>
        <!-- b0 -->
        <g id="node5" class="node">
            <title>b0</title>
            <path fill="#c1cdcd" stroke="#c1cdcd" d="M175,-235.5C175,-235.5 205,-235.5 205,-235.5 211,-235.5 217,-241.5 217,-247.5 217,-247.5 217,-259.5 217,-259.5 217,-265.5 211,-271.5 205,-271.5 205,-271.5 175,-271.5 175,-271.5 169,-271.5 163,-265.5 163,-259.5 163,-259.5 163,-247.5 163,-247.5 163,-241.5 169,-235.5 175,-235.5"/>
            <text text-anchor="middle" x="189.6616" y="-248.7" font-family="Arial" font-size="16.00" fill="#000000">Work</text>
        </g>
        <!-- b1 -->
        <g id="node6" class="node">
            <title>b1</title>
            <path fill="#c1cdcd" stroke="#c1cdcd" d="M163.7648,-162.5C163.7648,-162.5 216.2352,-162.5 216.2352,-162.5 222.2352,-162.5 228.2352,-168.5 228.2352,-174.5 228.2352,-174.5 228.2352,-186.5 228.2352,-186.5 228.2352,-192.5 222.2352,-198.5 216.2352,-198.5 216.2352,-198.5 163.7648,-198.5 163.7648,-198.5 157.7648,-198.5 151.7648,-192.5 151.7648,-186.5 151.7648,-186.5 151.7648,-174.5 151.7648,-174.5 151.7648,-168.5 157.7648,-162.5 163.7648,-162.5"/>
            <text text-anchor="middle" x="190" y="-175.7" font-family="Arial" font-size="16.00" fill="#000000">Instance</text>
        </g>
        <!-- b0&#45;&#45;b1 -->
        <g id="edge4" class="edge">
            <title>b0&#45;&#45;b1</title>
            <path fill="none" stroke="#000000" d="M190,-235.4551C190,-224.2241 190,-209.8298 190,-198.5904"/>
        </g>
        <!-- b2 -->
        <g id="node7" class="node">
            <title>b2</title>
            <path fill="#c1cdcd" stroke="#c1cdcd" d="M175,-89.5C175,-89.5 205,-89.5 205,-89.5 211,-89.5 217,-95.5 217,-101.5 217,-101.5 217,-113.5 217,-113.5 217,-119.5 211,-125.5 205,-125.5 205,-125.5 175,-125.5 175,-125.5 169,-125.5 163,-119.5 163,-113.5 163,-113.5 163,-101.5 163,-101.5 163,-95.5 169,-89.5 175,-89.5"/>
            <text text-anchor="middle" x="189.5568" y="-102.7" font-family="Arial" font-size="16.00" fill="#000000">Item</text>
        </g>
        <!-- b1&#45;&#45;b2 -->
        <g id="edge5" class="edge">
            <title>b1&#45;&#45;b2</title>
            <path fill="none" stroke="#000000" d="M190,-162.4551C190,-151.2241 190,-136.8298 190,-125.5904"/>
        </g>
        <!-- c0 -->
        <g id="node8" class="node">
            <title>c0</title>
            <path fill="#838b8b" stroke="#838b8b" d="M269,-235.5C269,-235.5 299,-235.5 299,-235.5 305,-235.5 311,-241.5 311,-247.5 311,-247.5 311,-259.5 311,-259.5 311,-265.5 305,-271.5 299,-271.5 299,-271.5 269,-271.5 269,-271.5 263,-271.5 257,-265.5 257,-259.5 257,-259.5 257,-247.5 257,-247.5 257,-241.5 263,-235.5 269,-235.5"/>
            <text text-anchor="middle" x="283.6616" y="-248.7" font-family="Arial" font-size="16.00" fill="#ffffff">Work</text>
        </g>
        <!-- c1 -->
        <g id="node9" class="node">
            <title>c1</title>
            <path fill="#838b8b" stroke="#838b8b" d="M263.5496,-162.5C263.5496,-162.5 304.4504,-162.5 304.4504,-162.5 310.4504,-162.5 316.4504,-168.5 316.4504,-174.5 316.4504,-174.5 316.4504,-186.5 316.4504,-186.5 316.4504,-192.5 310.4504,-198.5 304.4504,-198.5 304.4504,-198.5 263.5496,-198.5 263.5496,-198.5 257.5496,-198.5 251.5496,-192.5 251.5496,-186.5 251.5496,-186.5 251.5496,-174.5 251.5496,-174.5 251.5496,-168.5 257.5496,-162.5 263.5496,-162.5"/>
            <text text-anchor="middle" x="284" y="-175.7" font-family="Arial" font-size="16.00" fill="#ffffff">Edition</text>
        </g>
        <!-- c0&#45;&#45;c1 -->
        <g id="edge6" class="edge">
            <title>c0&#45;&#45;c1</title>
            <path fill="none" stroke="#000000" d="M284,-235.4551C284,-224.2241 284,-209.8298 284,-198.5904"/>
        </g>
        <!-- c2 -->
        <g id="node10" class="node">
            <title>c2</title>
            <path fill="#838b8b" stroke="#838b8b" d="M269,-89.5C269,-89.5 299,-89.5 299,-89.5 305,-89.5 311,-95.5 311,-101.5 311,-101.5 311,-113.5 311,-113.5 311,-119.5 305,-125.5 299,-125.5 299,-125.5 269,-125.5 269,-125.5 263,-125.5 257,-119.5 257,-113.5 257,-113.5 257,-101.5 257,-101.5 257,-95.5 263,-89.5 269,-89.5"/>
            <text text-anchor="middle" x="283.6696" y="-102.7" font-family="Arial" font-size="16.00" fill="#ffffff">Copy</text>
        </g>
        <!-- c1&#45;&#45;c2 -->
        <g id="edge7" class="edge">
            <title>c1&#45;&#45;c2</title>
            <path fill="none" stroke="#000000" d="M284,-162.4551C284,-151.2241 284,-136.8298 284,-125.5904"/>
        </g>
    </g>
</svg>