<?xml version="1.0" encoding="UTF-8" standalone="no"?>
<!-- Created with Inkscape (http://www.inkscape.org/) -->

<svg
   xmlns:dc="http://purl.org/dc/elements/1.1/"
   xmlns:cc="http://creativecommons.org/ns#"
   xmlns:rdf="http://www.w3.org/1999/02/22-rdf-syntax-ns#"
   xmlns:svg="http://www.w3.org/2000/svg"
   xmlns="http://www.w3.org/2000/svg"
   xmlns:sodipodi="http://sodipodi.sourceforge.net/DTD/sodipodi-0.dtd"
   xmlns:inkscape="http://www.inkscape.org/namespaces/inkscape"
   id="svg3004"
   version="1.1"
   inkscape:version="0.48.2 r9819"
   width="166"
   height="45"
   xml:space="preserve"
   sodipodi:docname="snac_logo_small.svg"><metadata
     id="metadata3010"><rdf:RDF><cc:Work
         rdf:about=""><dc:format>image/svg+xml</dc:format><dc:type
           rdf:resource="http://purl.org/dc/dcmitype/StillImage" /><dc:title /></cc:Work></rdf:RDF></metadata><defs
     id="defs3008"><inkscape:perspective
       sodipodi:type="inkscape:persp3d"
       inkscape:vp_x="0 : 64.631248 : 1"
       inkscape:vp_y="0 : 1000 : 0"
       inkscape:vp_z="738.27502 : 64.631248 : 1"
       inkscape:persp3d-origin="369.13751 : 43.087499 : 1"
       id="perspective3628" /></defs><sodipodi:namedview
     pagecolor="#ffffff"
     bordercolor="#666666"
     borderopacity="1"
     objecttolerance="10"
     gridtolerance="10"
     guidetolerance="10"
     inkscape:pageopacity="0"
     inkscape:pageshadow="2"
     inkscape:window-width="1275"
     inkscape:window-height="701"
     id="namedview3006"
     showgrid="false"
     inkscape:zoom="1"
     inkscape:cx="-22.579646"
     inkscape:cy="22.574587"
     inkscape:window-x="0"
     inkscape:window-y="0"
     inkscape:window-maximized="0"
     inkscape:current-layer="g3014"
     fit-margin-top="0"
     fit-margin-left="0"
     fit-margin-right="0"
     fit-margin-bottom="0" /><g
     id="g3012"
     inkscape:groupmode="layer"
     inkscape:label="ink_ext_XXXXXX"
     transform="matrix(1.25,0,0,-1.25,-392.88989,58.772394)"><g
       id="g3014"
       transform="matrix(0.0736188,0,0,0.06625685,25.760708,-25.472875)"><path
         d="m 4100.3057,574.98226 c -67.3185,0 -136.5422,21.16333 -180.7742,45.21225 l 15.4028,96.1565 c 49.9925,-32.70211 111.5327,-54.82167 169.2266,-54.82879 50.0013,-0.01 76.9252,18.26617 76.9341,49.02824 0,32.69232 -20.1929,46.16491 -94.2245,64.44177 -112.512,28.85586 -159.6287,61.55441 -159.6198,146.1748 0.01,80.77057 63.4811,137.49397 171.1853,137.48507 60.5786,0 116.3494,-12.5092 162.4956,-32.7066 l -15.394,-96.15644 c -46.1462,25.96582 -100.9554,42.31866 -147.1105,42.32578 -43.2704,0.004 -64.4249,-17.30283 -64.4338,-42.3053 0,-25.00247 17.3082,-39.42506 86.532,-57.70102 120.1956,-30.78611 167.3123,-63.48199 167.3034,-150.9853 -0.01,-91.34689 -65.4042,-146.15788 -187.523,-146.14096"
         style="fill:#ffffff;fill-opacity:1;fill-rule:nonzero;stroke:none"
         id="path3016"
         inkscape:connector-curvature="0" /><path
         d="m 4659.9276,584.54004 0.036,303.85543 c 0,40.3884 -17.2992,68.28091 -59.6081,68.28447 -35.5779,0.007 -72.1352,-23.07578 -105.7899,-58.65101 l -0.036,-313.47198 -115.3878,0.007 0.053,464.45465 98.0885,-0.018 10.5594,-65.38827 c 43.2793,41.34197 92.3191,74.98607 154.8298,74.98607 86.5408,-0.01 132.687,-52.8976 132.6781,-139.44119 l -0.036,-334.62819 -115.3878,0.0107"
         style="fill:#ffffff;fill-opacity:1;fill-rule:nonzero;stroke:none"
         id="path3018"
         inkscape:connector-curvature="0" /><path
         d="m 5144.5831,816.22912 c -133.6664,-16.33235 -165.3981,-55.75385 -165.3981,-99.98228 -0.01,-33.65833 21.1455,-53.84764 56.7234,-53.85476 39.4242,-0.0107 75.9637,19.2224 108.6658,49.98446 l 0.01,103.85258 z m 16.3199,-231.73449 -9.6068,60.5777 c -37.501,-39.42238 -85.5881,-70.19424 -154.8208,-70.17643 -78.8484,0 -131.7344,48.0916 -131.7255,128.85505 0.01,112.50934 92.328,161.5447 279.8421,179.78951 l 0,13.4628 c 0,50.00494 -28.838,69.23713 -79.801,69.24069 -53.8565,0.004 -104.8106,-15.37525 -154.8298,-37.48056 l -14.4145,92.30941 c 53.8565,21.1526 110.5888,37.4903 184.6383,37.4814 120.1956,-0.01 179.8037,-44.2453 179.7948,-155.78868 l -0.036,-318.2887 -99.0412,0.0178"
         style="fill:#ffffff;fill-opacity:1;fill-rule:nonzero;stroke:none"
         id="path3020"
         inkscape:connector-curvature="0" /><path
         d="m 5570.5119,575.79247 c -128.8497,0.007 -220.1984,86.56489 -220.1806,238.49572 0.018,161.54114 100.9999,244.23041 226.9739,244.22151 60.5697,-0.01 108.6568,-18.2787 142.2938,-39.4402 l -16.3555,-103.8526 c -37.5011,27.89251 -74.0227,43.282 -120.1868,43.28556 -68.2711,0.007 -116.3582,-49.03091 -116.3671,-141.34115 -0.01,-96.16006 52.8682,-142.31162 120.1778,-142.32854 40.3857,0 79.8188,11.52899 122.1366,44.22131 l 14.4145,-99.04031 c -43.2882,-29.80495 -91.3665,-44.2311 -152.9066,-44.2213"
         style="fill:#ffffff;fill-opacity:1;fill-rule:nonzero;stroke:none"
         id="path3022"
         inkscape:connector-curvature="0" /></g></g></svg>