<?xml version="1.0" encoding="UTF-8" standalone="no"?>
<!-- Created with Inkscape (http://www.inkscape.org/) -->

<svg
   xmlns:dc="http://purl.org/dc/elements/1.1/"
   xmlns:cc="http://creativecommons.org/ns#"
   xmlns:rdf="http://www.w3.org/1999/02/22-rdf-syntax-ns#"
   xmlns:svg="http://www.w3.org/2000/svg"
   xmlns="http://www.w3.org/2000/svg"
   xmlns:sodipodi="http://sodipodi.sourceforge.net/DTD/sodipodi-0.dtd"
   xmlns:inkscape="http://www.inkscape.org/namespaces/inkscape"
   id="svg3004"
   version="1.1"
   inkscape:version="0.48.2 r9819"
   width="300"
   height="12.992478"
   xml:space="preserve"
   sodipodi:docname="snac_spelled_out_300.svg"><metadata
     id="metadata3010"><rdf:RDF><cc:Work
         rdf:about=""><dc:format>image/svg+xml</dc:format><dc:type
           rdf:resource="http://purl.org/dc/dcmitype/StillImage" /><dc:title /></cc:Work></rdf:RDF></metadata><defs
     id="defs3008"><inkscape:perspective
       sodipodi:type="inkscape:persp3d"
       inkscape:vp_x="0 : 64.631248 : 1"
       inkscape:vp_y="0 : 1000 : 0"
       inkscape:vp_z="738.27502 : 64.631248 : 1"
       inkscape:persp3d-origin="369.13751 : 43.087499 : 1"
       id="perspective3628" /></defs><sodipodi:namedview
     pagecolor="#ffffff"
     bordercolor="#666666"
     borderopacity="1"
     objecttolerance="10"
     gridtolerance="10"
     guidetolerance="10"
     inkscape:pageopacity="0"
     inkscape:pageshadow="2"
     inkscape:window-width="1275"
     inkscape:window-height="701"
     id="namedview3006"
     showgrid="false"
     inkscape:zoom="1"
     inkscape:cx="72.133631"
     inkscape:cy="26.40158"
     inkscape:window-x="0"
     inkscape:window-y="0"
     inkscape:window-maximized="0"
     inkscape:current-layer="g3014"
     fit-margin-top="0"
     fit-margin-left="0"
     fit-margin-right="0"
     fit-margin-bottom="0" /><g
     id="g3012"
     inkscape:groupmode="layer"
     inkscape:label="ink_ext_XXXXXX"
     transform="matrix(1.25,0,0,-1.25,-50.541314,22.937878)"><g
       id="g3014"
       transform="matrix(0.0736188,0,0,0.06625685,25.760708,-25.472875)"><path
         d="m 239.50681,504.90479 c -14.97038,0 -30.36882,4.71634 -40.20523,10.05908 l 3.41802,21.3888 c 11.12421,-7.27454 24.81023,-12.19938 37.64689,-12.19938 11.12077,0 17.10401,4.06497 17.10401,10.91181 0,7.27455 -4.49001,10.26759 -20.95014,14.33346 -25.02251,6.41111 -35.50281,13.68566 -35.50281,32.50912 0.003,17.96717 14.11757,30.58535 38.07153,30.57822 13.47716,0 25.87881,-2.77741 36.14328,-7.26742 l -3.42493,-21.3888 c -10.26795,5.77045 -22.45379,9.40772 -32.71835,9.40772 -9.62398,0.007 -14.33336,-3.84577 -14.33336,-9.40772 0,-5.55927 3.84961,-8.77151 19.24466,-12.83381 26.7385,-6.84952 37.2153,-14.12406 37.20835,-33.58106 0,-20.32756 -14.53875,-32.51002 -41.70192,-32.51002"
         style="fill:#ffffff;fill-opacity:1;fill-rule:nonzero;stroke:none"
         id="path3116"
         inkscape:connector-curvature="0" /><path
         d="m 344.5118,591.3056 c -15.1862,0 -23.31348,-13.47002 -23.31348,-32.50199 -0.004,-19.03999 8.33579,-32.94485 23.30991,-32.94485 15.82686,0 23.95058,13.47003 23.95414,32.71852 0,19.0391 -8.55588,32.72832 -23.95057,32.72832 z m -0.004,-86.40705 c -28.01911,0.006 -48.33598,20.10747 -48.32885,53.68853 0.004,33.57839 20.31597,53.88813 48.54805,53.88813 28.23564,0 48.76458,-20.10747 48.76101,-53.68942 -0.004,-33.57126 -20.74813,-53.89793 -48.98021,-53.88724"
         style="fill:#ffffff;fill-opacity:1;fill-rule:nonzero;stroke:none"
         id="path3118"
         inkscape:connector-curvature="0" /><path
         d="m 457.84553,505.09637 c -28.65978,0.0107 -48.97308,19.26542 -48.96952,53.04519 0.004,35.93878 22.46074,54.32652 50.47718,54.31583 13.47359,0 24.16621,-4.05429 31.65283,-8.76082 l -3.64084,-23.10408 c -8.33935,6.20618 -16.46663,9.62425 -26.73511,9.62425 -15.18619,0.01 -25.87525,-10.89489 -25.87525,-31.43095 -0.004,-21.3888 11.75832,-31.65639 26.72799,-31.65639 8.98358,0 17.75153,2.5689 27.1637,9.83275 l 3.20512,-22.02234 c -9.62336,-6.63031 -20.31598,-9.84344 -34.0061,-9.84344"
         style="fill:#ffffff;fill-opacity:1;fill-rule:nonzero;stroke:none"
         id="path3120"
         inkscape:connector-curvature="0" /><path
         d="m 513.65833,507.02104 0.0107,103.29604 25.66229,0 -0.006,-103.29604 -25.66674,0 z m 13.05569,120.62254 c -8.55142,0 -15.3947,5.98697 -15.39114,14.53929 0,8.77151 6.84328,14.97679 15.3947,14.97679 8.34292,0 15.18619,-6.20528 15.18619,-14.97679 -0.004,-8.56301 -6.84595,-14.53929 -15.18975,-14.53929"
         style="fill:#ffffff;fill-opacity:1;fill-rule:nonzero;stroke:none"
         id="path3122"
         inkscape:connector-curvature="0" /><path
         d="m 622.94758,558.55946 c -29.73171,-3.63727 -36.79062,-12.40878 -36.79062,-22.24867 0,-7.48305 4.70297,-11.97306 12.61729,-11.97306 8.77151,0 16.89166,4.27081 24.1671,11.12033 l 0.006,23.1014 z m 3.62748,-51.54822 -2.13764,13.47002 c -8.33935,-8.77151 -19.03197,-15.61122 -34.43023,-15.61122 -17.53946,0 -29.30401,10.70331 -29.30401,28.66335 0.007,25.02607 20.53606,35.93789 62.2444,39.99306 l 0,2.99304 c 0,11.12122 -6.41468,15.40272 -17.74796,15.40272 -11.97662,0 -23.31704,-3.41807 -34.43736,-8.33668 l -3.206,20.52894 c 11.97751,4.70564 24.5948,8.33668 41.06143,8.33668 26.73868,-0.0107 40.0002,-9.84345 39.99307,-34.65032 l -0.004,-70.78959 -22.03214,0"
         style="fill:#ffffff;fill-opacity:1;fill-rule:nonzero;stroke:none"
         id="path3124"
         inkscape:connector-curvature="0" /><path
         d="m 675.11242,507.00411 0.0142,150.35425 25.66674,4.05518 -0.0142,-154.40943 -25.66674,0"
         style="fill:#ffffff;fill-opacity:1;fill-rule:nonzero;stroke:none"
         id="path3126"
         inkscape:connector-curvature="0" /><path
         d="m 836.14592,506.99342 0.007,67.57735 c 0,8.98001 -3.8529,15.18619 -13.26152,15.18619 -7.91164,0 -16.03893,-5.12711 -23.52554,-13.04589 l -0.004,-69.71765 -25.66318,0 0.0107,103.2996 21.80938,0 2.35327,-14.54285 c 9.62424,9.18941 20.5325,16.67247 34.43023,16.67247 19.25206,0 29.51608,-11.76456 29.51341,-31.01216 l -0.004,-74.42419 -25.66674,0.007"
         style="fill:#ffffff;fill-opacity:1;fill-rule:nonzero;stroke:none"
         id="path3128"
         inkscape:connector-curvature="0" /><path
         d="m 907.78825,569.64592 41.28064,0 c -1.71528,16.03893 -8.12372,25.01895 -20.52894,25.02608 -10.26759,0 -18.82703,-8.34381 -20.7517,-25.02608 z m 24.80331,-64.81063 c -29.08392,0 -50.46916,16.48089 -50.46648,53.68942 0.004,33.58195 19.89272,53.89793 47.05554,53.89793 31.01305,-0.006 44.9081,-23.31972 44.9081,-52.6166 0,-2.1412 -0.21296,-4.70921 -0.21296,-6.20617 l -66.51521,0 c 1.28044,-20.30974 12.18869,-28.87275 28.01555,-28.87275 13.25795,0 24.16264,4.92574 35.49949,12.82669 l 2.99661,-20.10123 c -11.12033,-7.69156 -24.59392,-12.61729 -41.28064,-12.61729"
         style="fill:#ffffff;fill-opacity:1;fill-rule:nonzero;stroke:none"
         id="path3130"
         inkscape:connector-curvature="0" /><path
         d="m 1034.1714,505.25319 c -20.3195,0.0107 -34.0061,7.49375 -34.0061,31.01305 l 0,52.83668 -14.75491,0 0.004,21.16248 14.75491,0 0.01,32.72832 25.4502,3.84578 0,-36.5741 20.9575,0 3.206,-21.1696 -24.1671,0 -0.01,-48.54895 c 0,-8.34291 3.6372,-12.83292 13.4771,-12.83292 2.9895,0 5.7705,0.21563 8.1273,0.85986 l 3.2051,-21.60443 c -4.065,-0.86343 -8.7671,-1.71617 -16.2546,-1.71617"
         style="fill:#ffffff;fill-opacity:1;fill-rule:nonzero;stroke:none"
         id="path3132"
         inkscape:connector-curvature="0" /><path
         d="m 1176.3842,506.74303 -23.5238,0 -19.0329,68.22782 -18.6051,-68.22069 -23.7465,0 -30.5694,101.59324 26.0909,3.41807 18.1739,-69.94398 18.6141,68.44078 22.6683,0 18.5963,-68.23138 17.7586,68.22069 24.602,0 -31.0264,-103.50455"
         style="fill:#ffffff;fill-opacity:1;fill-rule:nonzero;stroke:none"
         id="path3134"
         inkscape:connector-curvature="0" /><path
         d="m 1262.6023,591.20848 c -15.1835,0 -23.3099,-13.47003 -23.3099,-32.51002 -0.01,-19.0284 8.3313,-32.92702 23.3099,-32.92702 15.8162,0 23.9515,13.47091 23.9515,32.71852 0,19.03197 -8.5541,32.71852 -23.9515,32.71852 z m 0,-86.40794 c -28.0236,0.0107 -48.3395,20.11816 -48.3306,53.68942 0,33.58195 20.3159,53.89792 48.5445,53.89792 28.2374,-0.006 48.7672,-20.11816 48.7672,-53.68942 -0.01,-33.57749 -20.7526,-53.89792 -48.9811,-53.89792"
         style="fill:#ffffff;fill-opacity:1;fill-rule:nonzero;stroke:none"
         id="path3136"
         inkscape:connector-curvature="0" /><path
         d="m 1357.9805,566.18241 -0.01,-59.24068 -25.6623,0 0.01,103.28803 21.8129,0 3.2078,-20.74457 c 6.8433,11.98375 17.1082,22.03303 33.156,22.88576 l 4.0543,-25.4511 c -16.0389,-1.07194 -29.0839,-9.61712 -36.5687,-20.73744"
         style="fill:#ffffff;fill-opacity:1;fill-rule:nonzero;stroke:none"
         id="path3138"
         inkscape:connector-curvature="0" /><path
         d="m 1474.0934,505.42695 -37.638,52.61035 0,-51.11339 -25.6623,0.0107 0.01,150.35425 25.6623,4.05518 -0.01,-93.89099 33.5837,42.77047 29.0839,-0.0107 -38.0657,-46.61358 40.4181,-54.11713 -27.382,-4.05517"
         style="fill:#ffffff;fill-opacity:1;fill-rule:nonzero;stroke:none"
         id="path3140"
         inkscape:connector-curvature="0" /><path
         d="m 1551.0802,504.77648 c -14.9696,0.007 -30.367,4.70564 -40.2042,10.05908 l 3.4216,21.37811 c 11.1204,-7.26385 24.8069,-12.18246 37.6381,-12.18959 11.1203,0 17.1081,4.06231 17.1081,10.90202 0,7.27454 -4.4909,10.26759 -20.9486,14.34058 -25.0207,6.42181 -35.5084,13.68923 -35.5084,32.50913 0.01,17.96003 14.1232,30.57732 38.0746,30.57732 13.4727,0 25.8762,-2.78453 36.1411,-7.27454 l -3.4216,-21.3888 c -10.265,5.77847 -22.4545,9.41574 -32.7195,9.41574 -9.6233,0 -14.337,-3.84667 -14.337,-9.40505 0,-5.56194 3.8494,-8.76438 19.2467,-12.83649 26.7405,-6.83971 37.2193,-14.12138 37.2104,-33.58819 0,-20.30974 -14.542,-32.49932 -41.7013,-32.49932"
         style="fill:#ffffff;fill-opacity:1;fill-rule:nonzero;stroke:none"
         id="path3142"
         inkscape:connector-curvature="0" /><path
         d="m 1715.3189,558.44808 c -29.7255,-3.63727 -36.7916,-12.40166 -36.7916,-22.25134 0,-7.48394 4.7048,-11.97395 12.6173,-11.97395 8.7769,0 16.8944,4.2815 24.1743,11.12121 l 0,23.10408 z m 3.6265,-51.54822 -2.1296,13.47715 c -8.3402,-8.77151 -19.0417,-15.61122 -34.4391,-15.61122 -17.5359,0 -29.2978,10.69618 -29.2978,28.66334 0,25.02608 20.5388,35.92096 62.24,39.99307 l 0,2.99304 c 0,11.12122 -6.4156,15.39559 -17.7498,15.39559 -11.9757,0 -23.3099,-3.42164 -34.4302,-8.33668 l -3.2078,20.52537 c 11.9757,4.70921 24.593,8.33668 41.0597,8.33668 26.7315,0 39.9903,-9.83275 39.9903,-34.65032 l -0.01,-70.78602 -22.0268,0"
         style="fill:#ffffff;fill-opacity:1;fill-rule:nonzero;stroke:none"
         id="path3144"
         inkscape:connector-curvature="0" /><path
         d="m 1828.8656,506.88916 0.01,67.57735 c 0,8.99071 -3.8405,15.19332 -13.2589,15.19332 -7.9125,0 -16.0389,-5.13424 -23.5237,-13.04232 l -0.01,-69.72835 -25.6623,0 0.01,103.30585 21.8129,0 2.3524,-14.54909 c 9.6323,9.20634 20.5298,16.68315 34.4391,16.68315 19.2468,0 29.5028,-11.77524 29.5028,-31.02285 l -0.01,-74.41706 -25.6622,0"
         style="fill:#ffffff;fill-opacity:1;fill-rule:nonzero;stroke:none"
         id="path3146"
         inkscape:connector-curvature="0" /><path
         d="m 1944.1409,586.22394 c -6.4156,2.99304 -11.3431,4.49713 -20.1021,4.49713 -13.4816,0 -23.105,-10.91181 -23.105,-33.57838 0,-20.11104 8.3492,-29.51608 19.6833,-29.51608 9.4095,0 16.6805,5.55927 23.5238,14.32989 l 0,44.26744 z m 3.6266,-79.3526 -2.1385,14.33346 c -7.4849,-8.76439 -17.3221,-16.46307 -31.6502,-16.46307 -21.8129,0 -38.93,16.04605 -38.9211,50.91112 0,38.49699 21.1803,55.59716 45.1228,55.59716 9.8461,0 17.7587,-1.71616 23.9604,-3.85647 l 0.01,49.83651 25.6712,4.06142 -0.018,-154.42013 -22.0357,0"
         style="fill:#ffffff;fill-opacity:1;fill-rule:nonzero;stroke:none"
         id="path3148"
         inkscape:connector-curvature="0" /><path
         d="m 2096.1899,558.33313 c -29.7254,-3.63727 -36.7915,-12.39096 -36.7915,-22.24153 0,-7.48306 4.7048,-11.97306 12.6173,-11.97306 8.768,0 16.9033,4.2815 24.1742,11.12032 l 0,23.09427 z m 3.6355,-51.53842 -2.1474,13.47716 c -8.3402,-8.77062 -19.0329,-15.61746 -34.4302,-15.61034 -17.5448,0 -29.2978,10.68549 -29.2889,28.65622 0,25.02608 20.5298,35.9272 62.231,39.99307 l 0,2.99304 c 0,11.12121 -6.4066,15.39202 -17.7497,15.39202 -11.9757,0 -23.3099,-3.41094 -34.4302,-8.33667 l -3.2078,20.53606 c 11.9757,4.69941 24.593,8.33668 41.0596,8.33668 26.7316,0 39.9904,-9.83988 39.9904,-34.65032 l -0.01,-70.79672 -22.0179,0.01"
         style="fill:#ffffff;fill-opacity:1;fill-rule:nonzero;stroke:none"
         id="path3150"
         inkscape:connector-curvature="0" /><path
         d="m 2172.9719,566.02558 -0.01,-59.24067 -25.6712,0 0.01,103.30584 21.8129,-0.007 3.2078,-20.74457 c 6.8433,11.98019 17.1082,22.02234 33.156,22.87508 l 4.0632,-25.44398 c -16.0478,-1.06124 -29.0928,-9.62335 -36.5687,-20.74457"
         style="fill:#ffffff;fill-opacity:1;fill-rule:nonzero;stroke:none"
         id="path3152"
         inkscape:connector-curvature="0" /><path
         d="m 2266.6392,504.85311 c -28.6562,0 -48.9722,19.2476 -48.9633,53.04519 0,35.93076 22.4634,54.31583 50.4692,54.31583 13.4816,0 24.1742,-4.07211 31.659,-8.77151 l -3.6355,-23.09428 c -8.3491,6.19548 -16.4755,9.62425 -26.7315,9.62425 -15.1835,0 -25.8851,-10.91182 -25.8851,-31.43719 0,-21.3888 11.7708,-31.65015 26.7316,-31.65015 8.9818,0 17.7586,2.55821 27.1592,9.83275 l 3.2078,-22.03214 c -9.6233,-6.63031 -20.3249,-9.83275 -34.0114,-9.83275"
         style="fill:#ffffff;fill-opacity:1;fill-rule:nonzero;stroke:none"
         id="path3154"
         inkscape:connector-curvature="0" /><path
         d="m 2383.8392,506.76709 0.01,67.57735 c 0,8.98002 -3.8493,15.18619 -13.2677,15.18619 -7.9037,0.007 -16.039,-5.12711 -23.5149,-13.04589 l -0.01,-69.71765 -25.6712,0 0.018,150.35782 25.6712,4.0623 -0.01,-64.1664 c 8.5541,7.91877 19.2467,15.18619 32.9333,15.17639 19.2467,0 29.5027,-11.76545 29.5027,-31.01305 l -0.01,-74.41706 -25.6534,0"
         style="fill:#ffffff;fill-opacity:1;fill-rule:nonzero;stroke:none"
         id="path3156"
         inkscape:connector-curvature="0" /><path
         d="m 2436.2152,506.75996 0.01,103.29604 25.6712,0 -0.01,-103.30584 -25.6712,0.01 z m 13.0628,120.62254 c -8.5541,0 -15.3884,5.98697 -15.3884,14.53929 0,8.77151 6.8343,14.97768 15.3884,14.97768 8.3492,-0.0107 15.1835,-6.20617 15.1835,-14.97768 0,-8.56212 -6.8343,-14.54909 -15.1835,-14.53929"
         style="fill:#ffffff;fill-opacity:1;fill-rule:nonzero;stroke:none"
         id="path3158"
         inkscape:connector-curvature="0" /><path
         d="m 2541.0118,506.10593 -25.6712,0 -35.6955,102.01827 26.9454,3.42877 22.6683,-73.36206 22.2407,71.84816 25.6622,0 -36.1499,-103.93314"
         style="fill:#ffffff;fill-opacity:1;fill-rule:nonzero;stroke:none"
         id="path3160"
         inkscape:connector-curvature="0" /><path
         d="m 2646.9043,558.28145 c -29.7254,-3.63727 -36.7915,-12.39809 -36.7915,-22.24154 0,-7.48394 4.6959,-11.97395 12.6173,-11.97395 8.768,0 16.9033,4.27438 24.1742,11.12122 l 0,23.09427 z m 3.6266,-51.54911 -2.1385,13.48072 c -8.3491,-8.77151 -19.0418,-15.61034 -34.4302,-15.61034 -17.5448,0 -29.2978,10.69262 -29.2889,28.66335 0,25.02518 20.5209,35.9272 62.231,39.98237 l 0,2.99305 c 0,11.12032 -6.4155,15.40182 -17.7497,15.40182 -11.9757,0 -23.3099,-3.41094 -34.4302,-8.33578 l -3.2167,20.53606 c 11.9846,4.69852 24.6019,8.33579 41.0685,8.33579 26.7316,0 39.9904,-9.83988 39.9904,-34.65032 l -0.01,-70.79672 -22.0268,0"
         style="fill:#ffffff;fill-opacity:1;fill-rule:nonzero;stroke:none"
         id="path3162"
         inkscape:connector-curvature="0" /><path
         d="m 2698.6388,506.73234 0.018,150.34802 25.6623,4.06497 -0.01,-154.41299 -25.6712,0"
         style="fill:#ffffff;fill-opacity:1;fill-rule:nonzero;stroke:none"
         id="path3164"
         inkscape:connector-curvature="0" /><path
         d="m 2839.9952,504.80054 c -28.6562,0 -48.9722,19.24849 -48.9633,53.03895 0,35.9272 22.4545,54.32207 50.4692,54.32207 13.4816,-0.006 24.1742,-4.07211 31.6591,-8.77062 l -3.6444,-23.10141 c -8.3403,6.20261 -16.4667,9.62425 -26.7316,9.63138 -15.1835,0 -25.8761,-10.91271 -25.8761,-31.44788 0,-21.3888 11.7619,-31.64659 26.7315,-31.64659 8.9818,-0.0107 17.7498,2.56534 27.1593,9.83275 l 3.1988,-22.0259 c -9.6233,-6.63031 -20.3159,-9.83988 -34.0025,-9.83275"
         style="fill:#ffffff;fill-opacity:1;fill-rule:nonzero;stroke:none"
         id="path3166"
         inkscape:connector-curvature="0" /><path
         d="m 2937.307,590.97502 c -15.1836,0.007 -23.3099,-13.47002 -23.3099,-32.50199 0,-19.03999 8.3313,-32.94485 23.3009,-32.94485 15.8251,0 23.9604,13.47003 23.9604,32.71852 0,19.0391 -8.5541,32.72832 -23.9514,32.72832 z m -0.01,-86.40794 c -28.0146,0.007 -48.3306,20.10836 -48.3217,53.69655 0,33.57126 20.316,53.881 48.5445,53.881 28.2285,0 48.7673,-20.10747 48.7673,-53.68942 -0.01,-33.57126 -20.7526,-53.88813 -48.9901,-53.88813"
         style="fill:#ffffff;fill-opacity:1;fill-rule:nonzero;stroke:none"
         id="path3168"
         inkscape:connector-curvature="0" /><path
         d="m 3069.0311,506.69759 0.01,67.57735 c 0,8.98001 -3.8493,15.19332 -13.2588,15.19332 -7.9126,0 -16.039,-5.13424 -23.5238,-13.05302 l -0.01,-69.71765 -25.6712,0 0.01,103.30673 21.813,-0.007 2.3612,-14.54285 c 9.6234,9.20011 20.5299,16.68316 34.4303,16.68316 19.2556,-0.0107 29.5116,-11.77525 29.5116,-31.02285 l -0.01,-74.41706 -25.6623,0"
         style="fill:#ffffff;fill-opacity:1;fill-rule:nonzero;stroke:none"
         id="path3170"
         inkscape:connector-curvature="0" /><path
         d="m 3159.2768,504.97518 c -20.316,0 -34.0025,7.48305 -33.9936,31.01216 l 0,52.82956 -14.7647,0 0,21.1696 14.7647,0 0.01,32.71852 25.4484,3.85647 -0.01,-36.57499 20.9576,0 3.2077,-21.1794 -24.1653,0.01 0,-48.54806 c 0,-8.34291 3.6266,-12.84361 13.4727,-12.84361 2.994,0 5.774,0.2192 8.1264,0.86343 l 3.1989,-21.608 c -4.0632,-0.85274 -8.768,-1.70548 -16.2528,-1.70548"
         style="fill:#ffffff;fill-opacity:1;fill-rule:nonzero;stroke:none"
         id="path3172"
         inkscape:connector-curvature="0" /><path
         d="m 3214.6646,569.35009 41.2824,-0.007 c -1.7197,16.03536 -8.1353,25.01538 -20.5387,25.02607 -10.256,0 -18.8191,-8.34648 -20.7437,-25.01895 z m 24.7979,-64.81063 c -29.0839,0 -50.4691,16.47465 -50.4602,53.68942 0,33.57126 19.8883,53.89169 47.0475,53.89169 31.0175,-0.0107 44.909,-23.31347 44.909,-52.62105 0,-2.14031 -0.2049,-4.69941 -0.2049,-6.19548 l -66.517,0 c 1.2831,-20.31687 12.1806,-28.87275 28.0057,-28.87275 13.2678,0 24.1742,4.91861 35.5173,12.82669 l 2.9851,-20.10123 c -11.1204,-7.69869 -24.602,-12.61729 -41.2825,-12.61729"
         style="fill:#ffffff;fill-opacity:1;fill-rule:nonzero;stroke:none"
         id="path3174"
         inkscape:connector-curvature="0" /><path
         d="m 3360.9396,505.16587 -22.0268,37.00002 -20.5387,-35.49236 -25.4485,0 32.7284,51.97325 -30.7948,49.40079 26.09,3.41808 19.6833,-34.0061 19.2467,32.51002 25.2346,-0.007 -31.0175,-49.18248 32.9333,-52.19245 -26.09,-3.42164"
         style="fill:#ffffff;fill-opacity:1;fill-rule:nonzero;stroke:none"
         id="path3176"
         inkscape:connector-curvature="0" /><path
         d="m 3443.0856,504.95023 c -20.3248,0 -34.0114,7.49018 -34.0025,31.01305 l 0,52.82599 -14.7558,0 0,21.17317 14.7558,0 0.01,32.72476 25.4574,3.84667 -0.01,-36.58212 20.9486,0 3.2078,-21.1696 -24.1564,0.007 0,-48.55518 c 0,-8.33667 3.6265,-12.82668 13.4637,-12.82668 2.994,0 5.783,0.20939 8.1264,0.85273 l 3.2078,-21.60443 c -4.0632,-0.85274 -8.7768,-1.70548 -16.2528,-1.70548"
         style="fill:#ffffff;fill-opacity:1;fill-rule:nonzero;stroke:none"
         id="path3178"
         inkscape:connector-curvature="0" /></g></g></svg>