<?xml version="1.0" encoding="UTF-8" standalone="no"?>
<!-- Created with Inkscape (http://www.inkscape.org/) -->
<svg
   xmlns:dc="http://purl.org/dc/elements/1.1/"
   xmlns:cc="http://creativecommons.org/ns#"
   xmlns:rdf="http://www.w3.org/1999/02/22-rdf-syntax-ns#"
   xmlns:svg="http://www.w3.org/2000/svg"
   xmlns="http://www.w3.org/2000/svg"
   version="1.1"
   width="990"
   height="765"
   id="svg3004"
   xml:space="preserve"><metadata
     id="metadata3010"><rdf:RDF><cc:Work
         rdf:about=""><dc:format>image/svg+xml</dc:format><dc:type
           rdf:resource="http://purl.org/dc/dcmitype/StillImage" /><dc:title></dc:title></cc:Work></rdf:RDF></metadata><defs
     id="defs3008" /><g
     transform="matrix(1.25,0,0,-1.25,0,765)"
     id="g3012"><g
       transform="scale(0.1,0.1)"
       id="g3014"><g
         transform="scale(10,10)"
         id="g3016"><text
           transform="matrix(1,0,0,-1,18,580)"
           id="text3018"><tspan
             x="0 8.5539999 16.337999 28.784 37.338001 45.891998 51.338001 59.122002 63.014 66.905998 76.244003 80.136002 87.919998 96.473999 104.258 108.15 112.042 119.042 126.826 131.48801 135.38 143.93401"
             y="0"
             id="tspan3020"
             style="font-size:14px;font-variant:normal;font-weight:bold;writing-mode:lr-tb;fill:#000000;fill-opacity:1;fill-rule:nonzero;stroke:none;font-family:Arial;-inkscape-font-specification:Arial-BoldMT">Temporal Visualization</tspan></text>
<text
           transform="matrix(1,0,0,-1,18,563)"
           id="text3022"><tspan
             x="0 3.3299999 9.4399996 15 20.559999 23.34 28.9 34.459999 37.240002 44.459999 50.02 53.349998 58.91 61.689999 67.25 72.809998 76.139999 81.139999 83.919998 88.919998 91.699997 95.029999 100.03 102.81 108.37 116.7 125.03 130.59 136.14999 139.48 142.25999 145.03999 150.60001 153.92999 156.71001 165.03999 170.60001 176.16 178.38 180.60001 186.16 191.72 195.05 197.27 202.83 208.39 213.95 218.95 224.50999 230.07001 232.85001 238.41 243.97 249.53 251.75 253.97 258.97 264.53 267.31 269.53 275.09 280.64999 283.42999 286.20999 288.42999 291.20999 293.42999 298.98999 303.98999 306.76999 311.76999 317.32999 322.89001 325.67001 331.23001 333.45001 339.01001 341.23001 346.79001 352.35001 355.13 358.67999 367.01001 372.57001 377.57001 383.13 385.91 391.47 397.03 399.25 401.47 407.03 415.35999 420.92001 423.70001 427.25 430.03 435.59 441.14999 446.70999 452.26999 455.60001 461.16 466.72 472.28 477.84"
             y="0"
             id="tspan3024"
             style="font-size:10px;font-variant:normal;font-weight:normal;writing-mode:lr-tb;fill:#000000;fill-opacity:1;fill-rule:nonzero;stroke:none;font-family:ArialMT;-inkscape-font-specification:ArialMT">(Top 19 word bursts (stemmed) for Medline-indexed publication titles containing &quot;mesothelioma,&quot; 1948-2010)</tspan><tspan
             x="0 5 10.56 16.120001 21.68 27.24 30.57 35.57 38.349998 43.91 49.470001 52.25 55.029999 60.59 66.150002 71.709999 77.269997 80.050003 82.650002 85.43 90.989998 93.769997 99.330002 104.89 107.67 114.34 122.67 125.45 128.78 134.34 139.89999 142.67999 148.24001"
             y="13"
             id="tspan3026"
             style="font-size:10px;font-variant:normal;font-weight:normal;writing-mode:lr-tb;fill:#000000;fill-opacity:1;fill-rule:nonzero;stroke:none;font-family:ArialMT;-inkscape-font-specification:ArialMT">January 25, 2016 | 9:33 PM -05:00</tspan></text>
</g><g
         transform="scale(10,10)"
         id="g3028"><text
           transform="matrix(1,0,0,-1,357.937,28)"
           id="text3030"><tspan
             x="0 7.2199998 14.44 21.110001 23.889999 27.219999 32.220001 37.779999 42.779999 45.560001 47.779999 53.34 56.119999 61.68 67.239998 72.800003"
             y="0"
             id="tspan3032"
             style="font-size:10px;font-style:italic;font-variant:normal;writing-mode:lr-tb;fill:#999999;fill-opacity:1;fill-rule:nonzero;stroke:none;font-family:Arial;-inkscape-font-specification:Arial-ItalicMT">CNS (cns.iu.edu)</tspan></text>
</g><path
         d="m 1080,1332 0,3978"
         id="path3034"
         style="fill:none;stroke:none" /><g
         transform="scale(10,10)"
         id="g3036"><text
           transform="matrix(1,0,0,-1,96.8805,123.2)"
           id="text3038"><tspan
             x="0 5.5599999 11.12 16.68"
             y="0"
             id="tspan3040"
             style="font-size:10px;font-variant:normal;font-weight:normal;writing-mode:lr-tb;fill:#000000;fill-opacity:1;fill-rule:nonzero;stroke:none;font-family:ArialMT;-inkscape-font-specification:ArialMT">1948</tspan></text>
</g><path
         d="m 1523.25,1332 0,3978"
         id="path3042"
         style="fill:none;stroke:none" /><g
         transform="scale(10,10)"
         id="g3044"><text
           transform="matrix(1,0,0,-1,141.205,123.2)"
           id="text3046"><tspan
             x="0 5.5599999 11.12 16.68"
             y="0"
             id="tspan3048"
             style="font-size:10px;font-variant:normal;font-weight:normal;writing-mode:lr-tb;fill:#000000;fill-opacity:1;fill-rule:nonzero;stroke:none;font-family:ArialMT;-inkscape-font-specification:ArialMT">1953</tspan></text>
</g><path
         d="m 1966.25,1332 0,3978"
         id="path3050"
         style="fill:none;stroke:none" /><g
         transform="scale(10,10)"
         id="g3052"><text
           transform="matrix(1,0,0,-1,185.505,123.2)"
           id="text3054"><tspan
             x="0 5.5599999 11.12 16.68"
             y="0"
             id="tspan3056"
             style="font-size:10px;font-variant:normal;font-weight:normal;writing-mode:lr-tb;fill:#000000;fill-opacity:1;fill-rule:nonzero;stroke:none;font-family:ArialMT;-inkscape-font-specification:ArialMT">1958</tspan></text>
</g><path
         d="m 2409.25,1332 0,3978"
         id="path3058"
         style="fill:none;stroke:none" /><g
         transform="scale(10,10)"
         id="g3060"><text
           transform="matrix(1,0,0,-1,229.805,123.2)"
           id="text3062"><tspan
             x="0 5.5599999 11.12 16.68"
             y="0"
             id="tspan3064"
             style="font-size:10px;font-variant:normal;font-weight:normal;writing-mode:lr-tb;fill:#000000;fill-opacity:1;fill-rule:nonzero;stroke:none;font-family:ArialMT;-inkscape-font-specification:ArialMT">1963</tspan></text>
</g><path
         d="m 2852.25,1332 0,3978"
         id="path3066"
         style="fill:none;stroke:none" /><g
         transform="scale(10,10)"
         id="g3068"><text
           transform="matrix(1,0,0,-1,274.105,123.2)"
           id="text3070"><tspan
             x="0 5.5599999 11.12 16.68"
             y="0"
             id="tspan3072"
             style="font-size:10px;font-variant:normal;font-weight:normal;writing-mode:lr-tb;fill:#000000;fill-opacity:1;fill-rule:nonzero;stroke:none;font-family:ArialMT;-inkscape-font-specification:ArialMT">1968</tspan></text>
</g><path
         d="m 3295.5,1332 0,3978"
         id="path3074"
         style="fill:none;stroke:none" /><g
         transform="scale(10,10)"
         id="g3076"><text
           transform="matrix(1,0,0,-1,318.43,123.2)"
           id="text3078"><tspan
             x="0 5.5599999 11.12 16.68"
             y="0"
             id="tspan3080"
             style="font-size:10px;font-variant:normal;font-weight:normal;writing-mode:lr-tb;fill:#000000;fill-opacity:1;fill-rule:nonzero;stroke:none;font-family:ArialMT;-inkscape-font-specification:ArialMT">1973</tspan></text>
</g><path
         d="m 3738.5,1332 0,3978"
         id="path3082"
         style="fill:none;stroke:none" /><g
         transform="scale(10,10)"
         id="g3084"><text
           transform="matrix(1,0,0,-1,362.73,123.2)"
           id="text3086"><tspan
             x="0 5.5599999 11.12 16.68"
             y="0"
             id="tspan3088"
             style="font-size:10px;font-variant:normal;font-weight:normal;writing-mode:lr-tb;fill:#000000;fill-opacity:1;fill-rule:nonzero;stroke:none;font-family:ArialMT;-inkscape-font-specification:ArialMT">1978</tspan></text>
</g><path
         d="m 4181.5,1332 0,3978"
         id="path3090"
         style="fill:none;stroke:none" /><g
         transform="scale(10,10)"
         id="g3092"><text
           transform="matrix(1,0,0,-1,407.03,123.2)"
           id="text3094"><tspan
             x="0 5.5599999 11.12 16.68"
             y="0"
             id="tspan3096"
             style="font-size:10px;font-variant:normal;font-weight:normal;writing-mode:lr-tb;fill:#000000;fill-opacity:1;fill-rule:nonzero;stroke:none;font-family:ArialMT;-inkscape-font-specification:ArialMT">1983</tspan></text>
</g><path
         d="m 4624.5,1332 0,3978"
         id="path3098"
         style="fill:none;stroke:none" /><g
         transform="scale(10,10)"
         id="g3100"><text
           transform="matrix(1,0,0,-1,451.331,123.2)"
           id="text3102"><tspan
             x="0 5.5599999 11.12 16.68"
             y="0"
             id="tspan3104"
             style="font-size:10px;font-variant:normal;font-weight:normal;writing-mode:lr-tb;fill:#000000;fill-opacity:1;fill-rule:nonzero;stroke:none;font-family:ArialMT;-inkscape-font-specification:ArialMT">1988</tspan></text>
</g><path
         d="m 5067.75,1332 0,3978"
         id="path3106"
         style="fill:none;stroke:none" /><g
         transform="scale(10,10)"
         id="g3108"><text
           transform="matrix(1,0,0,-1,495.655,123.2)"
           id="text3110"><tspan
             x="0 5.5599999 11.12 16.68"
             y="0"
             id="tspan3112"
             style="font-size:10px;font-variant:normal;font-weight:normal;writing-mode:lr-tb;fill:#000000;fill-opacity:1;fill-rule:nonzero;stroke:none;font-family:ArialMT;-inkscape-font-specification:ArialMT">1993</tspan></text>
</g><path
         d="m 5510.75,1332 0,3978"
         id="path3114"
         style="fill:none;stroke:none" /><g
         transform="scale(10,10)"
         id="g3116"><text
           transform="matrix(1,0,0,-1,539.955,123.2)"
           id="text3118"><tspan
             x="0 5.5599999 11.12 16.68"
             y="0"
             id="tspan3120"
             style="font-size:10px;font-variant:normal;font-weight:normal;writing-mode:lr-tb;fill:#000000;fill-opacity:1;fill-rule:nonzero;stroke:none;font-family:ArialMT;-inkscape-font-specification:ArialMT">1998</tspan></text>
</g><path
         d="m 5953.75,1332 0,3978"
         id="path3122"
         style="fill:none;stroke:none" /><g
         transform="scale(10,10)"
         id="g3124"><text
           transform="matrix(1,0,0,-1,584.256,123.2)"
           id="text3126"><tspan
             x="0 5.5599999 11.12 16.68"
             y="0"
             id="tspan3128"
             style="font-size:10px;font-variant:normal;font-weight:normal;writing-mode:lr-tb;fill:#000000;fill-opacity:1;fill-rule:nonzero;stroke:none;font-family:ArialMT;-inkscape-font-specification:ArialMT">2003</tspan></text>
</g><path
         d="m 6396.75,1332 0,3978"
         id="path3130"
         style="fill:none;stroke:none" /><g
         transform="scale(10,10)"
         id="g3132"><text
           transform="matrix(1,0,0,-1,628.556,123.2)"
           id="text3134"><tspan
             x="0 5.5599999 11.12 16.68"
             y="0"
             id="tspan3136"
             style="font-size:10px;font-variant:normal;font-weight:normal;writing-mode:lr-tb;fill:#000000;fill-opacity:1;fill-rule:nonzero;stroke:none;font-family:ArialMT;-inkscape-font-specification:ArialMT">2008</tspan></text>
</g><path
         d="m 6840,1332 0,3978"
         id="path3138"
         style="fill:none;stroke:none" /><g
         transform="scale(10,10)"
         id="g3140"><text
           transform="matrix(1,0,0,-1,672.88,123.2)"
           id="text3142"><tspan
             x="0 5.5599999 11.12 16.68"
             y="0"
             id="tspan3144"
             style="font-size:10px;font-variant:normal;font-weight:normal;writing-mode:lr-tb;fill:#000000;fill-opacity:1;fill-rule:nonzero;stroke:none;font-family:ArialMT;-inkscape-font-specification:ArialMT">2013</tspan></text>
<text
           transform="matrix(1,0,0,-1,90.105,142.5707)"
           id="text3146"><tspan
             x="0 2.6330547 3.6843824 6.3174372 8.9504919 10.527483"
             y="0"
             id="tspan3148"
             style="font-size:4.73571014px;font-variant:normal;font-weight:normal;writing-mode:lr-tb;fill:#000000;fill-opacity:1;fill-rule:nonzero;stroke:none;font-family:ArialMT;-inkscape-font-specification:ArialMT">pleura</tspan></text>
</g><path
         d="m 1080,1379.36 2569.95,0 0,137.551 -2569.95,0 0,-137.551 z"
         id="path3150"
         style="fill:#000000;fill-opacity:1;fill-rule:nonzero;stroke:none" /><g
         transform="scale(10,10)"
         id="g3152"><text
           transform="matrix(1,0,0,-1,90.8957,158.356)"
           id="text3154"><tspan
             x="0 1.5769914 4.2100463 6.843101 9.4761553 11.053147"
             y="0"
             id="tspan3156"
             style="font-size:4.73571014px;font-variant:normal;font-weight:normal;writing-mode:lr-tb;fill:#000000;fill-opacity:1;fill-rule:nonzero;stroke:none;font-family:ArialMT;-inkscape-font-specification:ArialMT">report</tspan></text>
</g><path
         d="m 1080,1564.26 1152.14,0 0,80.5586 -1152.14,0 0,-80.5586 z"
         id="path3158"
         style="fill:#000000;fill-opacity:1;fill-rule:nonzero;stroke:none" /><g
         transform="scale(10,10)"
         id="g3160"><text
           transform="matrix(1,0,0,-1,88.4578,168.888)"
           id="text3162"><tspan
             x="0 2.6330547 5.2661095 6.843101 7.8944287 9.2109556 11.84401 14.477065 17.110121 19.743176"
             y="0"
             id="tspan3164"
             style="font-size:4.73571014px;font-variant:normal;font-weight:normal;writing-mode:lr-tb;fill:#000000;fill-opacity:1;fill-rule:nonzero;stroke:none;font-family:ArialMT;-inkscape-font-specification:ArialMT">peritoneum</tspan></text>
</g><path
         d="m 1168.79,1692.18 2126.7,0 0,38.25 -2126.7,0 0,-38.25 z"
         id="path3166"
         style="fill:#000000;fill-opacity:1;fill-rule:nonzero;stroke:none" /><g
         transform="scale(10,10)"
         id="g3168"><text
           transform="matrix(1,0,0,-1,105.122,179.799)"
           id="text3170"><tspan
             x="0 2.6330547 5.2661095 6.843101 7.8944287 10.262283 12.895338 14.47233 17.105385 18.156712 20.789766"
             y="0"
             id="tspan3172"
             style="font-size:4.73571014px;font-variant:normal;font-weight:normal;writing-mode:lr-tb;fill:#000000;fill-opacity:1;fill-rule:nonzero;stroke:none;font-family:ArialMT;-inkscape-font-specification:ArialMT">pericardium</tspan></text>
</g><path
         d="m 1345.9,1777.79 2658.5,0 0,85.2617 -2658.5,0 0,-85.2617 z"
         id="path3174"
         style="fill:#000000;fill-opacity:1;fill-rule:nonzero;stroke:none" /><g
         transform="scale(10,10)"
         id="g3176"><text
           transform="matrix(1,0,0,-1,124.243,193.923)"
           id="text3178"><tspan
             x="0 2.6330547 4.2100463 5.261374 9.2062206 11.839275 13.416266"
             y="0"
             id="tspan3180"
             style="font-size:4.73571014px;font-variant:normal;font-weight:normal;writing-mode:lr-tb;fill:#000000;fill-opacity:1;fill-rule:nonzero;stroke:none;font-family:ArialMT;-inkscape-font-specification:ArialMT">primari</tspan></text>
</g><path
         d="m 1434.45,1910.4 1329.25,0 0,102.512 -1329.25,0 0,-102.512 z"
         id="path3182"
         style="fill:#000000;fill-opacity:1;fill-rule:nonzero;stroke:none" /><g
         transform="scale(10,10)"
         id="g3184"><text
           transform="matrix(1,0,0,-1,146.443,211.261)"
           id="text3186"><tspan
             x="0 2.3678551 5.0009098 7.3687649"
             y="0"
             id="tspan3188"
             style="font-size:4.73571014px;font-variant:normal;font-weight:normal;writing-mode:lr-tb;fill:#000000;fill-opacity:1;fill-rule:nonzero;stroke:none;font-family:ArialMT;-inkscape-font-specification:ArialMT">case</tspan></text>
</g><path
         d="m 1611.8,2060.27 1506.35,0 0,131.301 -1506.35,0 0,-131.301 z"
         id="path3190"
         style="fill:#000000;fill-opacity:1;fill-rule:nonzero;stroke:none" /><g
         transform="scale(10,10)"
         id="g3192"><text
           transform="matrix(1,0,0,-1,171.717,228.084)"
           id="text3194"><tspan
             x="0 2.6330547 3.6843824 5.0009098 6.3174372 8.9504919"
             y="0"
             id="tspan3196"
             style="font-size:4.73571014px;font-variant:normal;font-weight:normal;writing-mode:lr-tb;fill:#000000;fill-opacity:1;fill-rule:nonzero;stroke:none;font-family:ArialMT;-inkscape-font-specification:ArialMT">diffus</tspan></text>
</g><path
         d="m 1877.7,2238.93 886.004,0 0,119.582 -886.004,0 0,-119.582 z"
         id="path3198"
         style="fill:#000000;fill-opacity:1;fill-rule:nonzero;stroke:none" /><g
         transform="scale(10,10)"
         id="g3200"><text
           transform="matrix(1,0,0,-1,233.922,241.951)"
           id="text3202"><tspan
             x="0 2.6330547 5.0009098 7.6339645 10.267019 12.634874 13.951402 16.584455 18.952311"
             y="0"
             id="tspan3204"
             style="font-size:4.73571014px;font-variant:normal;font-weight:normal;writing-mode:lr-tb;fill:#000000;fill-opacity:1;fill-rule:nonzero;stroke:none;font-family:ArialMT;-inkscape-font-specification:ArialMT">asbestosi</tspan></text>
</g><path
         d="m 2586.6,2405.87 1594.9,0 0,62.9023 -1594.9,0 0,-62.9023 z"
         id="path3206"
         style="fill:#000000;fill-opacity:1;fill-rule:nonzero;stroke:none" /><g
         transform="scale(10,10)"
         id="g3208"><text
           transform="matrix(1,0,0,-1,240.585,252.286)"
           id="text3210"><tspan
             x="0 2.6330547 3.9495821 5.5265737 6.5779014 9.2109556 11.578811 14.211865 16.844921 18.161448 19.73844 20.789766 23.157621 25.790676 26.842005 29.47506"
             y="0"
             id="tspan3212"
             style="font-size:4.73571014px;font-variant:normal;font-weight:normal;writing-mode:lr-tb;fill:#000000;fill-opacity:1;fill-rule:nonzero;stroke:none;font-family:ArialMT;-inkscape-font-specification:ArialMT">atrioventricular</tspan></text>
</g><path
         d="m 2763.7,2516.12 1772.25,0 0,49.0859 -1772.25,0 0,-49.0859 z"
         id="path3214"
         style="fill:#000000;fill-opacity:1;fill-rule:nonzero;stroke:none" /><g
         transform="scale(10,10)"
         id="g3216"><text
           transform="matrix(1,0,0,-1,346.048,263.216)"
           id="text3218"><tspan
             x="0 1.3165274 2.3678551 5.0009098 6.5779014 9.2109556 11.84401"
             y="0"
             id="tspan3220"
             style="font-size:4.73571014px;font-variant:normal;font-weight:normal;writing-mode:lr-tb;fill:#000000;fill-opacity:1;fill-rule:nonzero;stroke:none;font-family:ArialMT;-inkscape-font-specification:ArialMT">fibrous</tspan></text>
</g><path
         d="m 3649.95,2612.57 1063.35,0 0,74.9375 -1063.35,0 0,-74.9375 z"
         id="path3222"
         style="fill:#000000;fill-opacity:1;fill-rule:nonzero;stroke:none" /><g
         transform="scale(10,10)"
         id="g3224"><text
           transform="matrix(1,0,0,-1,487.634,277.618)"
           id="text3226"><tspan
             x="0 1.5769914 4.2100463"
             y="0"
             id="tspan3228"
             style="font-size:4.73571014px;font-variant:normal;font-weight:normal;writing-mode:lr-tb;fill:#000000;fill-opacity:1;fill-rule:nonzero;stroke:none;font-family:ArialMT;-inkscape-font-specification:ArialMT">rat</tspan></text>
</g><path
         d="m 4978.95,2734.87 620.352,0 0,115.352 -620.352,0 0,-115.352 z"
         id="path3230"
         style="fill:#000000;fill-opacity:1;fill-rule:nonzero;stroke:none" /><g
         transform="scale(10,10)"
         id="g3232"><text
           transform="matrix(1,0,0,-1,509.218,293.431)"
           id="text3234"><tspan
             x="0 2.6330547 5.2661095 7.8991642"
             y="0"
             id="tspan3236"
             style="font-size:4.73571014px;font-variant:normal;font-weight:normal;writing-mode:lr-tb;fill:#000000;fill-opacity:1;fill-rule:nonzero;stroke:none;font-family:ArialMT;-inkscape-font-specification:ArialMT">gene</tspan></text>
</g><path
         d="m 5244.85,2897.57 797.453,0 0,109.32 -797.453,0 0,-109.32 z"
         id="path3238"
         style="fill:#000000;fill-opacity:1;fill-rule:nonzero;stroke:none" /><g
         transform="scale(10,10)"
         id="g3240"><text
           transform="matrix(1,0,0,-1,536.339,308.793)"
           id="text3242"><tspan
             x="0 2.3678551 4.7357101 7.3687649"
             y="0"
             id="tspan3244"
             style="font-size:4.73571014px;font-variant:normal;font-weight:normal;writing-mode:lr-tb;fill:#000000;fill-opacity:1;fill-rule:nonzero;stroke:none;font-family:ArialMT;-inkscape-font-specification:ArialMT">sv40</tspan></text>
</g><path
         d="m 5510.75,3054.25 797.453,0 0,102.023 -797.453,0 0,-102.023 z"
         id="path3246"
         style="fill:#000000;fill-opacity:1;fill-rule:nonzero;stroke:none" /><g
         transform="scale(10,10)"
         id="g3248"><text
           transform="matrix(1,0,0,-1,555.03,324.759)"
           id="text3250"><tspan
             x="0 2.6330547 5.2661095 7.8991642 10.532219 11.848746 14.481801 16.849657"
             y="0"
             id="tspan3252"
             style="font-size:4.73571014px;font-variant:normal;font-weight:normal;writing-mode:lr-tb;fill:#000000;fill-opacity:1;fill-rule:nonzero;stroke:none;font-family:ArialMT;-inkscape-font-specification:ArialMT">apoptosi</tspan></text>
</g><path
         d="m 5776.65,3203.63 620.105,0 0,132.762 -620.105,0 0,-132.762 z"
         id="path3254"
         style="fill:#000000;fill-opacity:1;fill-rule:nonzero;stroke:none" /><g
         transform="scale(10,10)"
         id="g3256"><text
           transform="matrix(1,0,0,-1,562.048,347.864)"
           id="text3258"><tspan
             x="0 2.6330547 5.2661095 9.2109556 11.84401 13.160538 14.73753 17.370584"
             y="0"
             id="tspan3260"
             style="font-size:4.73571014px;font-variant:normal;font-weight:normal;writing-mode:lr-tb;fill:#000000;fill-opacity:1;fill-rule:nonzero;stroke:none;font-family:ArialMT;-inkscape-font-specification:ArialMT">pemetrex</tspan></text>
</g><path
         d="m 5865.2,3383.75 708.902,0 0,231.742 -708.902,0 0,-231.742 z"
         id="path3262"
         style="fill:#000000;fill-opacity:1;fill-rule:nonzero;stroke:none" /><g
         transform="scale(10,10)"
         id="g3264"><text
           transform="matrix(1,0,0,-1,576.168,373.213)"
           id="text3266"><tspan
             x="0 2.3678551 5.0009098 6.5779014 9.2109556 11.84401 13.421002"
             y="0"
             id="tspan3268"
             style="font-size:4.73571014px;font-variant:normal;font-weight:normal;writing-mode:lr-tb;fill:#000000;fill-opacity:1;fill-rule:nonzero;stroke:none;font-family:ArialMT;-inkscape-font-specification:ArialMT">surgeri</tspan></text>
</g><path
         d="m 5953.75,3662.85 620.348,0 0,183.406 -620.348,0 0,-183.406 z"
         id="path3270"
         style="fill:#000000;fill-opacity:1;fill-rule:nonzero;stroke:none" /><g
         transform="scale(10,10)"
         id="g3272"><text
           transform="matrix(1,0,0,-1,594.334,404.325)"
           id="text3274"><tspan
             x="0 3.9448464 6.5779014 8.945756 11.578811 12.895338 15.528393 18.161448 19.212776 20.264103"
             y="0"
             id="tspan3276"
             style="font-size:4.73571014px;font-variant:normal;font-weight:normal;writing-mode:lr-tb;fill:#000000;fill-opacity:1;fill-rule:nonzero;stroke:none;font-family:ArialMT;-inkscape-font-specification:ArialMT">mesothelin</tspan></text>
</g><path
         d="m 6219.65,3893.61 354.449,0 0,334.875 -354.449,0 0,-334.875 z"
         id="path3278"
         style="fill:#000000;fill-opacity:1;fill-rule:nonzero;stroke:none" /><g
         transform="scale(10,10)"
         id="g3280"><text
           transform="matrix(1,0,0,-1,605.032,446)"
           id="text3282"><tspan
             x="0 2.6330547 5.0009098 6.3174372 7.8944287 10.527483 13.160538 14.211865 16.844921 19.477976"
             y="0"
             id="tspan3284"
             style="font-size:4.73571014px;font-variant:normal;font-weight:normal;writing-mode:lr-tb;fill:#000000;fill-opacity:1;fill-rule:nonzero;stroke:none;font-family:ArialMT;-inkscape-font-specification:ArialMT">extrapleur</tspan></text>
</g><path
         d="m 6308.2,4275.85 265.898,0 0,413.145 -265.898,0 0,-413.145 z"
         id="path3286"
         style="fill:#000000;fill-opacity:1;fill-rule:nonzero;stroke:none" /><g
         transform="scale(10,10)"
         id="g3288"><text
           transform="matrix(1,0,0,-1,592.398,495.339)"
           id="text3290"><tspan
             x="0 2.6330547 5.2661095 7.8991642 10.532219 14.477065 17.110121 19.743176 22.37623 24.744085 26.060612 28.693666 32.638512"
             y="0"
             id="tspan3292"
             style="font-size:4.73571014px;font-variant:normal;font-weight:normal;writing-mode:lr-tb;fill:#000000;fill-opacity:1;fill-rule:nonzero;stroke:none;font-family:ArialMT;-inkscape-font-specification:ArialMT">pneumonectomi</tspan></text>
</g><path
         d="m 6308.2,4736.35 265.898,0 0,478.934 -265.898,0 0,-478.934 z"
         id="path3294"
         style="fill:#000000;fill-opacity:1;fill-rule:nonzero;stroke:none" /><g
         transform="scale(10,10)"
         id="g3296"><text
           transform="matrix(1,0,0,-1,18,94)"
           id="text3298"><tspan
             x="0 8.5539999 16.337999 24.892 32.675999 41.23"
             y="0"
             id="tspan3300"
             style="font-size:14px;font-variant:normal;font-weight:bold;writing-mode:lr-tb;fill:#000000;fill-opacity:1;fill-rule:nonzero;stroke:none;font-family:Arial;-inkscape-font-specification:Arial-BoldMT">Legend</tspan></text>
<text
           transform="matrix(1,0,0,-1,18,80)"
           id="text3302"><tspan
             x="0 6.6700001 10 15.56 21.120001 23.9 28.9 31.120001 36.119999 41.68 44.459999 47.240002 56.68 62.240002 64.459999 70.019997 75.580002"
             y="0"
             id="tspan3304"
             style="font-size:10px;font-variant:normal;font-weight:normal;writing-mode:lr-tb;fill:#000000;fill-opacity:1;fill-rule:nonzero;stroke:none;font-family:ArialMT;-inkscape-font-specification:ArialMT">Area size: Weight</tspan><tspan
             x="0 8.3299999 10.55 16.110001 18.33 26.66 32.220001 40.549999 43.330002 49.169998 51.950001 57.509998"
             y="10"
             id="tspan3306"
             style="font-size:10px;font-variant:normal;font-weight:normal;writing-mode:lr-tb;fill:#000000;fill-opacity:1;fill-rule:nonzero;stroke:none;font-family:ArialMT;-inkscape-font-specification:ArialMT">Minimum = 10</tspan><tspan
             x="0 8.3299999 13.89 18.889999 21.110001 29.440001 35 43.330002 46.110001 51.950001 54.73 60.290001"
             y="20"
             id="tspan3308"
             style="font-size:10px;font-variant:normal;font-weight:normal;writing-mode:lr-tb;fill:#000000;fill-opacity:1;fill-rule:nonzero;stroke:none;font-family:ArialMT;-inkscape-font-specification:ArialMT">Maximum = 51</tspan><tspan
             x="0 6.1100001 11.67 16.67 19.450001 22.23 24.450001 30.01 35.57 41.130001 43.349998 46.130001 48.91 58.349998 63.91 67.239998"
             y="30"
             id="tspan3310"
             style="font-size:10px;font-variant:normal;font-weight:normal;writing-mode:lr-tb;fill:#000000;fill-opacity:1;fill-rule:nonzero;stroke:none;font-family:ArialMT;-inkscape-font-specification:ArialMT">Text label: Word</tspan></text>
<text
           transform="matrix(1,0,0,-1,421.2,94)"
           id="text3312"><tspan
             x="0 10.108 18.662001 29.554001 33.445999 42 50.554001 54.445999 64.554001 72.337997 80.122002 88.676003 92.568001 101.122 109.676 113.568 121.352 125.244 136.90601 144.69"
             y="0"
             id="tspan3314"
             style="font-size:14px;font-variant:normal;font-weight:bold;writing-mode:lr-tb;fill:#000000;fill-opacity:1;fill-rule:nonzero;stroke:none;font-family:Arial;-inkscape-font-specification:Arial-BoldMT">How To Read This Map</tspan></text>
<text
           transform="matrix(1,0,0,-1,421.2,79)"
           id="text3316"><tspan
             x="0 6.1100001 11.67 13.89 18.889999"
             y="0"
             id="tspan3318"
             style="font-size:10px;font-variant:normal;font-weight:normal;writing-mode:lr-tb;fill:#000000;fill-opacity:1;fill-rule:nonzero;stroke:none;font-family:ArialMT;-inkscape-font-specification:ArialMT">This </tspan></text>
<text
           transform="matrix(1,0,0,-1,442.8699,79)"
           id="text3320"><tspan
             x="0 2.78 8.3400002 16.67 22.23 27.790001 31.120001 36.68 38.900002 41.68 47.240002 52.799999 56.130001 58.91 64.470001 67.800003 73.360001 78.919998"
             y="0"
             id="tspan3322"
             style="font-size:10px;font-style:italic;font-variant:normal;writing-mode:lr-tb;fill:#000000;fill-opacity:1;fill-rule:nonzero;stroke:none;font-family:Arial;-inkscape-font-specification:Arial-ItalicMT">temporal bar graph</tspan></text>
<text
           transform="matrix(1,0,0,-1,530.13,79)"
           id="text3324"><tspan
             x="0 5 7.2199998 12.22 17.780001 23.34 25.559999 27.780001 32.779999 38.34 41.119999 43.34 48.900002 54.459999 57.240002 60.57 66.129997 71.690002 75.019997 80.580002 85.580002 91.139999 96.699997 99.480003 104.48 107.26 112.82 118.38 123.38 128.94 131.72 135.05 140.61 145.61 151.17 154.5 160.06 162.84 168.39999 173.39999 176.17999 181.74001 184.52 190.08 195.64 198.97 201.19 206.19 211.75 217.31 220.09 225.64999"
             y="0"
             id="tspan3326"
             style="font-size:10px;font-variant:normal;font-weight:normal;writing-mode:lr-tb;fill:#000000;fill-opacity:1;fill-rule:nonzero;stroke:none;font-family:ArialMT;-inkscape-font-specification:ArialMT">visualization represents each record as a horizontal</tspan><tspan
             x="-108.93 -103.37 -97.809998 -94.480003 -91.699997 -84.480003 -82.260002 -79.480003 -73.919998 -71.139999 -65.580002 -62.799999 -57.799999 -52.240002 -46.68 -41.68 -39.459999 -36.68 -34.459999 -29.459999 -26.68 -21.68 -18.9 -13.34 -10.01 -7.23 -4.4499998 1.11 6.6700001 12.23 15.01 20.57 26.129999 31.690001 34.470001 40.029999 45.59 48.369999 53.93 56.709999 62.27 67.830002 73.389999 76.169998 81.730003 84.510002 87.290001 92.849998 97.849998 100.63 103.41 105.63 111.19 116.75 122.31 124.53 127.31 132.87 138.42999 141.21001 143.42999 146.21001 151.21001 153.99001 156.21001 161.77 164.55 167.33 170.11 175.11 177.33 182.89 188.45 191.23 194.00999 200.12 205.67999 211.24001 214.02 219.58 222.91 228.47"
             y="11"
             id="tspan3328"
             style="font-size:10px;font-variant:normal;font-weight:normal;writing-mode:lr-tb;fill:#000000;fill-opacity:1;fill-rule:nonzero;stroke:none;font-family:ArialMT;-inkscape-font-specification:ArialMT">bar with a specific start and end date and a text label on its left side. The area</tspan><tspan
             x="-108.93 -103.37 -100.59 -97.809998 -92.25 -86.690002 -81.690002 -76.129997 -73.349998 -67.790001 -62.23 -58.900002 -56.119999 -50.560001 -45 -40 -34.439999 -28.879999 -23.32 -18.32 -15.54 -9.9799995 -7.1999998 -1.64 3.9200001 12.25 17.809999 21.139999 23.360001 28.360001 33.919998 36.139999 38.919998 44.48 47.259998 50.040001 53.369999 55.59 61.150002 66.709999 69.489998 75.050003 77.830002 82.830002 88.389999 90.610001 96.169998 101.73 104.51 107.29 112.85 115.63 121.19 123.97 126.75 129.53 132.31 137.87 140.64999 146.21001 148.42999 151.21001 156.77 165.10001 170.66 176.22 181.78 184.56 187.34 192.89999 195.67999 198.46001 201.24001 206.8 212.36 217.92 220.14 225.7 231.25999"
             y="22"
             id="tspan3330"
             style="font-size:10px;font-variant:normal;font-weight:normal;writing-mode:lr-tb;fill:#000000;fill-opacity:1;fill-rule:nonzero;stroke:none;font-family:ArialMT;-inkscape-font-specification:ArialMT">of each bar encodes a numerical attribute value, e.g., total amount of funding.</tspan><tspan
             x="-108.93 -102.26 -96.699997 -93.370003 -88.370003 -85.589996 -77.260002 -71.699997 -66.699997 -63.919998 -58.360001 -52.799999 -50.02 -45.02 -39.459999 -37.240002 -31.68 -28.35 -22.790001 -17.23 -14.45 -11.67 -6.1100001 -3.3299999 2.23 5.5599999 11.12 16.120001 21.68 27.24 30.02 32.799999 37.799999 43.360001 46.139999 51.700001 57.259998 62.82 66.150002 68.370003 73.370003 78.93 81.150002 83.93 89.489998 92.269997 95.050003 98.379997 100.6 106.16 111.72 114.5 120.06 122.84 127.84 133.39999 135.62 141.17999 146.74001 151.74001 154.52 160.08 162.86 165.64 168.97 174.53 179.53 185.09 188.42 193.98 198.98"
             y="33"
             id="tspan3332"
             style="font-size:10px;font-variant:normal;font-weight:normal;writing-mode:lr-tb;fill:#000000;fill-opacity:1;fill-rule:nonzero;stroke:none;font-family:ArialMT;-inkscape-font-specification:ArialMT">Bars may be colored to present categorical attribute values of records.</tspan></text>
</g><g
         transform="scale(10,10)"
         id="g3334"><text
           transform="matrix(1,0,0,-1,218.079,97.4723)"
           id="text3336"><tspan
             x="0 10.108 15.554 23.337999"
             y="0"
             id="tspan3338"
             style="font-size:14px;font-variant:normal;font-weight:bold;writing-mode:lr-tb;fill:#000000;fill-opacity:1;fill-rule:nonzero;stroke:none;font-family:Arial;-inkscape-font-specification:Arial-BoldMT">Area</tspan></text>
</g><path
         d="m 2592,900 500,0 0,180 -500,0 0,-180 z"
         id="path3340"
         style="fill:#000000;fill-opacity:1;fill-rule:nonzero;stroke:none" /><g
         transform="scale(10,10)"
         id="g3342"><text
           transform="matrix(1,0,0,-1,314.2,96.3398)"
           id="text3344"><tspan
             x="0 5.5599999"
             y="0"
             id="tspan3346"
             style="font-size:10px;font-variant:normal;font-weight:normal;writing-mode:lr-tb;fill:#000000;fill-opacity:1;fill-rule:nonzero;stroke:none;font-family:ArialMT;-inkscape-font-specification:ArialMT">13</tspan></text>
</g><path
         d="m 2592,780 500,0 0,60 -500,0 0,-60 z"
         id="path3348"
         style="fill:#000000;fill-opacity:1;fill-rule:nonzero;stroke:none" /><g
         transform="scale(10,10)"
         id="g3350"><text
           transform="matrix(1,0,0,-1,314.2,78.4551)"
           id="text3352"><tspan
             x="0"
             y="0"
             id="tspan3354"
             style="font-size:10px;font-variant:normal;font-weight:normal;writing-mode:lr-tb;fill:#000000;fill-opacity:1;fill-rule:nonzero;stroke:none;font-family:ArialMT;-inkscape-font-specification:ArialMT">4</tspan></text>
</g><path
         d="m 2592,700 500,0 0,20 -500,0 0,-20 z"
         id="path3356"
         style="fill:#000000;fill-opacity:1;fill-rule:nonzero;stroke:none" /><g
         transform="scale(10,10)"
         id="g3358"><text
           transform="matrix(1,0,0,-1,314.2,68.4551)"
           id="text3360"><tspan
             x="0"
             y="0"
             id="tspan3362"
             style="font-size:10px;font-variant:normal;font-weight:normal;writing-mode:lr-tb;fill:#000000;fill-opacity:1;fill-rule:nonzero;stroke:none;font-family:ArialMT;-inkscape-font-specification:ArialMT">1</tspan></text>
</g><path
         d="m 2592,600 500,0"
         id="path3364"
         style="fill:none;stroke:none" /><g
         transform="scale(10,10)"
         id="g3366"><text
           transform="matrix(1,0,0,-1,314.2,56.3398)"
           id="text3368"><tspan
             x="0"
             y="0"
             id="tspan3370"
             style="font-size:10px;font-variant:normal;font-weight:normal;writing-mode:lr-tb;fill:#000000;fill-opacity:1;fill-rule:nonzero;stroke:none;font-family:ArialMT;-inkscape-font-specification:ArialMT">0</tspan></text>
</g><path
         d="m 2592,540 0,-50"
         id="path3372"
         style="fill:none;stroke:#000000;stroke-width:10;stroke-linecap:butt;stroke-linejoin:miter;stroke-miterlimit:10;stroke-opacity:1;stroke-dasharray:none" /><path
         d="m 2592,540 500,0"
         id="path3374"
         style="fill:none;stroke:#000000;stroke-width:10;stroke-linecap:butt;stroke-linejoin:miter;stroke-miterlimit:10;stroke-opacity:1;stroke-dasharray:none" /><path
         d="m 3092,540 0,-50"
         id="path3376"
         style="fill:none;stroke:#000000;stroke-width:10;stroke-linecap:butt;stroke-linejoin:miter;stroke-miterlimit:10;stroke-opacity:1;stroke-dasharray:none" /><g
         transform="scale(10,10)"
         id="g3378"><text
           transform="matrix(1,0,0,-1,259.2,39)"
           id="text3380"><tspan
             x="0 5.5599999 8.3400002 13.9 19.459999 22.24 28.91 34.470001 40.029999 43.360001 46.689999 51.689999"
             y="0"
             id="tspan3382"
             style="font-size:10px;font-variant:normal;font-weight:normal;writing-mode:lr-tb;fill:#000000;fill-opacity:1;fill-rule:nonzero;stroke:none;font-family:ArialMT;-inkscape-font-specification:ArialMT">5.65 Year(s)</tspan></text>
</g></g></g></svg>