<svg xmlns="http://www.w3.org/2000/svg" xmlns:xf="http://www.w3.org/2002/xforms" xmlns:ev="http://www.w3.org/2001/xml-events" xmlns:xh="http://www.w3.org/1999/xhtml" xmlns:cc="http://creativecommons.org/ns#" xmlns:dc="http://purl.org/dc/elements/1.1/" xmlns:xlink="http://www.w3.org/1999/xlink" xmlns:rdf="http://www.w3.org/1999/02/22-rdf-syntax-ns#" xmlns:sodipodi="http://sodipodi.sourceforge.net/DTD/sodipodi-0.dtd" xmlns:inkscape="http://www.inkscape.org/namespaces/inkscape" version="1.1" viewBox="0 250 1500 988.75" preserveAspectRatio="xMidYMid meet" id="svg3004" xml:space="preserve" inkscape:version="0.48.4 r9939" sodipodi:docname="florentine.svg">
   <sodipodi:namedview pagecolor="#ffffff" bordercolor="#666666" borderopacity="1" objecttolerance="10" gridtolerance="10" guidetolerance="10" inkscape:pageopacity="0" inkscape:pageshadow="2" inkscape:window-width="1855" inkscape:window-height="1056" id="namedview4023" showgrid="true" inkscape:snap-global="false" inkscape:zoom="0.67510372" inkscape:cx="805.56798" inkscape:cy="517.28218" inkscape:window-x="1985" inkscape:window-y="24" inkscape:window-maximized="1" inkscape:current-layer="svg3004">
     <inkscape:grid type="xygrid" id="grid4702" empspacing="5" visible="true" enabled="true" snapvisiblegridlinesonly="true"/>
   </sodipodi:namedview>
   <metadata id="metadata3010">
     <rdf:RDF>
       <cc:Work rdf:about="">
         <dc:format>image/svg+xml</dc:format>
         <dc:type rdf:resource="http://purl.org/dc/dcmitype/StillImage"/>
         <dc:title/></cc:Work></rdf:RDF>
   </metadata>
   <defs id="defs3008">
     <linearGradient inkscape:collect="always" id="linearGradient5609">
       <stop style="stop-color:#000000;stop-opacity:1" offset="0" id="stop5611"/>
       <stop style="stop-color:#66ff00;stop-opacity:1" offset="1" id="stop5613"/>
     </linearGradient>
     <clipPath id="clipPath3016">
       <path d="M 0,0 220,0 220,141 0,141 0,0 z" id="path3018" inkscape:connector-curvature="0"/>
     </clipPath>
     <clipPath id="clipPath3022">
       <path d="M 0,0 0,141 220,141 220,0 0,0 z" id="path3024" inkscape:connector-curvature="0"/>
     </clipPath>
     <clipPath id="clipPath3032">
       <path d="M 0,0 220,0 220,141 0,141 0,0 z" id="path3034" inkscape:connector-curvature="0"/>
     </clipPath>
     <linearGradient inkscape:collect="always" xlink:href="#linearGradient5609" id="linearGradient5615" x1="700.21375" y1="837.9237" x2="986.10782" y2="837.9237" gradientUnits="userSpaceOnUse" gradientTransform="matrix(1.0146805,0,0,0.99981855,90.646847,-168.85935)"/>
     <linearGradient inkscape:collect="always" xlink:href="#linearGradient5609-6" id="linearGradient5615-3" x1="700.21375" y1="837.92371" x2="986.10785" y2="837.92371" gradientUnits="userSpaceOnUse"/>
     <linearGradient inkscape:collect="always" id="linearGradient5609-6"><stop style="stop-color:#000000;stop-opacity:1" offset="0" id="stop5611-5"/><stop style="stop-color:#66ff00;stop-opacity:1" offset="1" id="stop5613-3"/>
     </linearGradient>
     <linearGradient gradientTransform="matrix(0.52017506,0,0,0.46020039,656.47033,324.00383)" y2="837.92371" x2="986.10785" y1="837.92371" x1="700.21375" gradientUnits="userSpaceOnUse" id="linearGradient5642-8" xlink:href="#linearGradient5609-6-6" inkscape:collect="always"/>
     <linearGradient inkscape:collect="always" id="linearGradient5609-6-6">
       <stop style="stop-color:#000000;stop-opacity:1" offset="0" id="stop5611-5-8"/><stop style="stop-color:#66ff00;stop-opacity:1" offset="1" id="stop5613-3-1"/>
     </linearGradient>
     <linearGradient gradientTransform="matrix(0.52017506,0,0,0.46020039,656.47033,324.00383)" y2="837.92371" x2="986.10785" y1="837.92371" x1="700.21375" gradientUnits="userSpaceOnUse" id="linearGradient5642-5" xlink:href="#linearGradient5609-6-4" inkscape:collect="always"/>
     <linearGradient inkscape:collect="always" id="linearGradient5609-6-4"><stop style="stop-color:#000000;stop-opacity:1" offset="0" id="stop5611-5-4"/>
       <stop style="stop-color:#66ff00;stop-opacity:1" offset="1" id="stop5613-3-13"/>
     </linearGradient>
   </defs>
   <path d="m 19,272.05966 740.88396,0 0,485.47995 -740.88396,0 0,-485.47995 z" id="path3028" style="fill:#ffffff;fill-opacity:1;fill-rule:nonzero;stroke:none" inkscape:connector-curvature="0"/>
   <path d="m 529.68254,582.3655 81.15102,127.51262" id="path3038" style="fill:none;stroke:#c0c0c0;stroke-width:6.28632784;stroke-linecap:square;stroke-linejoin:miter;stroke-miterlimit:10;stroke-opacity:1;stroke-dasharray:none" inkscape:connector-curvature="0"/>
   <path d="M 433.11141,654.8517 314.56613,648.28682" id="path3040" style="fill:none;stroke:#c0c0c0;stroke-width:6.28632784;stroke-linecap:square;stroke-linejoin:miter;stroke-miterlimit:10;stroke-opacity:1;stroke-dasharray:none" inkscape:connector-curvature="0"/>
   <path d="m 181.67832,557.56043 132.88781,90.72639" id="path3042" style="fill:none;stroke:#c0c0c0;stroke-width:6.28632784;stroke-linecap:square;stroke-linejoin:miter;stroke-miterlimit:10;stroke-opacity:1;stroke-dasharray:none" inkscape:connector-curvature="0"/>
   <path d="M 529.68254,582.3655 314.56613,648.28682" id="path3044" style="fill:none;stroke:#c0c0c0;stroke-width:6.28632784;stroke-linecap:square;stroke-linejoin:miter;stroke-miterlimit:10;stroke-opacity:1;stroke-dasharray:none" inkscape:connector-curvature="0"/>
   <path d="M 239.29251,441.52739 365.61966,418.4742" id="path3046" style="fill:none;stroke:#d5001f;stroke-width:6.28632784;stroke-linecap:square;stroke-linejoin:miter;stroke-miterlimit:10;stroke-opacity:1;stroke-dasharray:none" inkscape:connector-curvature="0"/>
   <path d="M 433.11141,654.8517 365.61966,418.4742" id="path3048" style="fill:none;stroke:#0000ff;stroke-width:6.28632784;stroke-linecap:square;stroke-linejoin:miter;stroke-miterlimit:10;stroke-opacity:1;stroke-dasharray:none" inkscape:connector-curvature="0"/>
   <path d="M 529.68254,582.3655 365.61966,418.4742" id="path3050" style="fill:none;stroke:#d5001f;stroke-width:6.28632784;stroke-linecap:square;stroke-linejoin:miter;stroke-miterlimit:10;stroke-opacity:1;stroke-dasharray:none" inkscape:connector-curvature="0"/>
   <path d="M 207.97025,357.55019 365.61966,418.4742" id="path3052" style="fill:none;stroke:#0000ff;stroke-width:6.28632784;stroke-linecap:square;stroke-linejoin:miter;stroke-miterlimit:10;stroke-opacity:1;stroke-dasharray:none" inkscape:connector-curvature="0"/>
   <path d="M 181.67832,557.56043 133.22921,292.27778" id="path3054" style="fill:none;stroke:#d5001f;stroke-width:6.28632784;stroke-linecap:square;stroke-linejoin:miter;stroke-miterlimit:10;stroke-opacity:1;stroke-dasharray:none" inkscape:connector-curvature="0"/>
   <path d="M 37.283537,416.83177 133.22921,292.27778" id="path3056" style="fill:none;stroke:#0000ff;stroke-width:6.28632784;stroke-linecap:square;stroke-linejoin:miter;stroke-miterlimit:10;stroke-opacity:1;stroke-dasharray:none" inkscape:connector-curvature="0"/>
   <path d="M 207.97025,357.55019 133.22921,292.27778" id="path3058" style="fill:none;stroke:#d5001f;stroke-width:6.28632784;stroke-linecap:square;stroke-linejoin:miter;stroke-miterlimit:10;stroke-opacity:1;stroke-dasharray:none" inkscape:connector-curvature="0"/>
   <path d="M 339.85999,313.97224 133.22921,292.27778" id="path3060" style="fill:none;stroke:#c0c0c0;stroke-width:6.28632784;stroke-linecap:square;stroke-linejoin:miter;stroke-miterlimit:10;stroke-opacity:1;stroke-dasharray:none" inkscape:connector-curvature="0"/>
   <path d="M 37.283537,416.83177 239.29251,441.52739" id="path3062" style="fill:none;stroke:#0000ff;stroke-width:6.28632784;stroke-linecap:square;stroke-linejoin:miter;stroke-miterlimit:10;stroke-opacity:1;stroke-dasharray:none" inkscape:connector-curvature="0"/>
   <path d="m 207.97025,357.55019 31.32226,83.9772" id="path3064" style="fill:none;stroke:#d5001f;stroke-width:6.28632784;stroke-linecap:square;stroke-linejoin:miter;stroke-miterlimit:10;stroke-opacity:1;stroke-dasharray:none" inkscape:connector-curvature="0"/>
   <path d="M 339.85999,313.97224 239.29251,441.52739" id="path3066" style="fill:none;stroke:#c0c0c0;stroke-width:6.28632784;stroke-linecap:square;stroke-linejoin:miter;stroke-miterlimit:10;stroke-opacity:1;stroke-dasharray:none" inkscape:connector-curvature="0"/>
   <path d="m 529.68254,582.3655 -96.57113,72.4862" id="path3068" style="fill:none;stroke:#0000ff;stroke-width:6.28632784;stroke-linecap:square;stroke-linejoin:miter;stroke-miterlimit:10;stroke-opacity:1;stroke-dasharray:none" inkscape:connector-curvature="0"/>
   <path d="M 37.283537,416.83177 181.67832,557.56043" id="path3070" style="fill:none;stroke:#d5001f;stroke-width:6.28632784;stroke-linecap:square;stroke-linejoin:miter;stroke-miterlimit:10;stroke-opacity:1;stroke-dasharray:none" inkscape:connector-curvature="0"/>
   <path d="M 319.05366,502.34167 181.67832,557.56043" id="path3072" style="fill:none;stroke:#c0c0c0;stroke-width:6.28632784;stroke-linecap:square;stroke-linejoin:miter;stroke-miterlimit:10;stroke-opacity:1;stroke-dasharray:none" inkscape:connector-curvature="0"/>
   <path d="M 207.97025,357.55019 37.283537,416.83177" id="path3074" style="fill:none;stroke:#0000ff;stroke-width:6.28632784;stroke-linecap:square;stroke-linejoin:miter;stroke-miterlimit:10;stroke-opacity:1;stroke-dasharray:none" inkscape:connector-curvature="0"/>
   <path d="M 693.14353,602.02674 529.68254,582.3655" id="path3076" style="fill:none;stroke:#0000ff;stroke-width:6.28632784;stroke-linecap:square;stroke-linejoin:miter;stroke-miterlimit:10;stroke-opacity:1;stroke-dasharray:none" inkscape:connector-curvature="0"/>
   <path d="m 472.46052,413.048 57.22202,169.3175" id="path3078" style="fill:none;stroke:#c0c0c0;stroke-width:6.28632784;stroke-linecap:square;stroke-linejoin:miter;stroke-miterlimit:10;stroke-opacity:1;stroke-dasharray:none" inkscape:connector-curvature="0"/>
   <path d="M 671.33947,504.00092 529.68254,582.3655" id="path3080" style="fill:none;stroke:#d5001f;stroke-width:6.28632784;stroke-linecap:square;stroke-linejoin:miter;stroke-miterlimit:10;stroke-opacity:1;stroke-dasharray:none" inkscape:connector-curvature="0"/>
   <path d="M 319.05366,502.34167 529.68254,582.3655" id="path3082" style="fill:none;stroke:#d5001f;stroke-width:6.28632784;stroke-linecap:square;stroke-linejoin:miter;stroke-miterlimit:10;stroke-opacity:1;stroke-dasharray:none" inkscape:connector-curvature="0"/>
   <path d="m 671.33947,504.00092 21.80406,98.02582" id="path3084" style="fill:none;stroke:#c0c0c0;stroke-width:6.28632784;stroke-linecap:square;stroke-linejoin:miter;stroke-miterlimit:10;stroke-opacity:1;stroke-dasharray:none" inkscape:connector-curvature="0"/>
   <path d="M 339.85999,313.97224 207.97025,357.55019" id="path3086" style="fill:none;stroke:#c0c0c0;stroke-width:6.28632784;stroke-linecap:square;stroke-linejoin:miter;stroke-miterlimit:10;stroke-opacity:1;stroke-dasharray:none" inkscape:connector-curvature="0"/>
   <path d="M 339.85999,313.97224 472.46052,413.048" id="path3088" style="fill:none;stroke:#c0c0c0;stroke-width:6.28632784;stroke-linecap:square;stroke-linejoin:miter;stroke-miterlimit:10;stroke-opacity:1;stroke-dasharray:none" inkscape:connector-curvature="0"/>
   <path d="M 319.05366,502.34167 472.46052,413.048" id="path3090" style="fill:none;stroke:#c0c0c0;stroke-width:6.28632784;stroke-linecap:square;stroke-linejoin:miter;stroke-miterlimit:10;stroke-opacity:1;stroke-dasharray:none" inkscape:connector-curvature="0"/>
   <g transform="matrix(3.1431639,0,0,-3.1431639,-241.8826,721.27376)" id="g3092"><text transform="matrix(1,0,0,-1,276.58456,0)" id="text3094"><tspan x="0 2.668 4.6680002 6.6680002 7.5560002 9.7799997 10.668 12.892 15.116 16.004" y="0" id="tspan3096" style="font-size:4px;font-variant:normal;font-weight:normal;writing-mode:lr-tb;fill:#000000;fill-opacity:1;fill-rule:nonzero;stroke:none;font-family:Helvetica;-inkscape-font-specification:Helvetica">Acciaiuoli</tspan></text>
</g>
   <a xlink:href="https://en.wikipedia.org/wiki/Acciaioli_family">
   <path class="link" d="m 619.61009,709.87812 c 0,4.84717 -3.92952,8.77666 -8.77653,8.77666 -4.84713,0 -8.77665,-3.92949 -8.77665,-8.77666 0,-4.8471 3.92952,-8.77659 8.77665,-8.77659 4.84701,0 8.77653,3.92949 8.77653,8.77659 z" id="path3098" style="fill:#49b600;fill-opacity:1;fill-rule:nonzero;stroke:none" inkscape:connector-curvature="0"/>
   </a>  
     <path d="m 619.61009,709.87812 c 0,4.84717 -3.92952,8.77666 -8.77653,8.77666 -4.84713,0 -8.77665,-3.92949 -8.77665,-8.77666 0,-4.8471 3.92952,-8.77659 8.77665,-8.77659 4.84701,0 8.77653,3.92949 8.77653,8.77659 z" id="path3100" style="fill:none;stroke:#49b600;stroke-width:3.14316392;stroke-linecap:square;stroke-linejoin:miter;stroke-miterlimit:10;stroke-opacity:1;stroke-dasharray:none" inkscape:connector-curvature="0"/><g transform="matrix(3.1431639,0,0,-3.1431639,-241.8826,609.00082)" id="g3102"><text transform="matrix(1,0,0,-1,255.94809,0)" id="text3104"><tspan x="0 3.332 5.5560002 7.7800002 8.6680002 10.668" y="0" id="tspan3106" style="font-size:4px;font-variant:normal;font-weight:normal;writing-mode:lr-tb;fill:#000000;fill-opacity:1;fill-rule:nonzero;stroke:none;font-family:Helvetica;-inkscape-font-specification:Helvetica">Medici</tspan></text>
</g>
   <a xlink:href="https://en.wikipedia.org/wiki/House_of_Medici">
   <path class="link" d="m 554.74629,582.3655 c 0,13.84221 -11.22157,25.06374 -25.06375,25.06374 -13.84218,0 -25.06371,-11.22153 -25.06371,-25.06374 0,-13.84218 11.22153,-25.06372 25.06371,-25.06372 13.84218,0 25.06375,11.22154 25.06375,25.06372 z" id="path3108" style="fill:#49b600;fill-opacity:1;fill-rule:nonzero;stroke:none" inkscape:connector-curvature="0"/>
   </a>
     <path d="m 554.74629,582.3655 c 0,13.84221 -11.22157,25.06374 -25.06375,25.06374 -13.84218,0 -25.06371,-11.22153 -25.06371,-25.06374 0,-13.84218 11.22153,-25.06372 25.06371,-25.06372 13.84218,0 25.06375,11.22154 25.06375,25.06372 z" id="path3110" style="fill:none;stroke:#49b600;stroke-width:3.14316392;stroke-linecap:square;stroke-linejoin:miter;stroke-miterlimit:10;stroke-opacity:1;stroke-dasharray:none" inkscape:connector-curvature="0"/><g transform="matrix(3.1431639,0,0,-3.1431639,-241.8826,620.82057)" id="g3112"><text transform="matrix(1,0,0,-1,305.45856,0)" id="text3114"><tspan x="0 2.668 4.8920002 6.8920002 8.8920002" y="0" id="tspan3116" style="font-size:4px;font-variant:normal;font-weight:normal;writing-mode:lr-tb;fill:#000000;fill-opacity:1;fill-rule:nonzero;stroke:none;font-family:Helvetica;-inkscape-font-specification:Helvetica">Pazzi</tspan></text>
</g>
   <path d="m 710.36581,602.02674 c 0,9.51137 -7.71078,17.22224 -17.22228,17.22224 -9.51149,0 -17.22227,-7.71087 -17.22227,-17.22224 0,-9.5114 7.71078,-17.22228 17.22227,-17.22228 9.5115,0 17.22228,7.71088 17.22228,17.22228 z" id="path3118" style="fill:#000000;fill-opacity:1;fill-rule:nonzero;stroke:none" inkscape:connector-curvature="0"/><path d="m 710.36581,602.02674 c 0,9.51137 -7.71078,17.22224 -17.22228,17.22224 -9.51149,0 -17.22227,-7.71087 -17.22227,-17.22224 0,-9.5114 7.71078,-17.22228 17.22227,-17.22228 9.5115,0 17.22228,7.71088 17.22228,17.22228 z" id="path3120" style="fill:none;stroke:#000000;stroke-width:3.14316392;stroke-linecap:square;stroke-linejoin:miter;stroke-miterlimit:10;stroke-opacity:1;stroke-dasharray:none" inkscape:connector-curvature="0"/><g transform="matrix(3.1431639,0,0,-3.1431639,-241.8826,514.34913)" id="g3122"><text transform="matrix(1,0,0,-1,295.83456,0)" id="text3124"><tspan x="0 2.668 4.8920002 5.7800002 7.7800002 8.6680002 10.892 12.004" y="0" id="tspan3126" style="font-size:4px;font-variant:normal;font-weight:normal;writing-mode:lr-tb;fill:#000000;fill-opacity:1;fill-rule:nonzero;stroke:none;font-family:Helvetica;-inkscape-font-specification:Helvetica">Salviati</tspan></text>
</g>
   <path d="m 680.116,504.00092 c 0,4.84713 -3.92952,8.77662 -8.77653,8.77662 -4.84723,0 -8.77666,-3.92949 -8.77666,-8.77662 0,-4.84717 3.92943,-8.77663 8.77666,-8.77663 4.84701,0 8.77653,3.92946 8.77653,8.77663 z" id="path3128" style="fill:#307800;fill-opacity:1;fill-rule:nonzero;stroke:none" inkscape:connector-curvature="0"/><path d="m 680.116,504.00092 c 0,4.84713 -3.92952,8.77662 -8.77653,8.77662 -4.84723,0 -8.77666,-3.92949 -8.77666,-8.77662 0,-4.84717 3.92943,-8.77663 8.77666,-8.77663 4.84701,0 8.77653,3.92946 8.77653,8.77663 z" id="path3130" style="fill:none;stroke:#307800;stroke-width:3.14316392;stroke-linecap:square;stroke-linejoin:miter;stroke-miterlimit:10;stroke-opacity:1;stroke-dasharray:none" inkscape:connector-curvature="0"/><g transform="matrix(3.1431639,0,0,-3.1431639,-241.8826,625.03401)" id="g3132"><text transform="matrix(1,0,0,-1,135.94392,0)" id="text3134"><tspan x="0 2.668 4.8920002 6.8920002 8.8920002" y="0" id="tspan3136" style="font-size:4px;font-variant:normal;font-weight:normal;writing-mode:lr-tb;fill:#000000;fill-opacity:1;fill-rule:nonzero;stroke:none;font-family:Helvetica;-inkscape-font-specification:Helvetica">Pucci</tspan></text>
</g>
   <a xlink:href="https://en.wikipedia.org/wiki/Pucci_family">
   <path class="link" d="m 177.55351,617.17616 c 0,3.47175 -2.81451,6.28627 -6.28633,6.28627 -3.47181,0 -6.28632,-2.81452 -6.28632,-6.28627 0,-3.47178 2.81451,-6.28639 6.28632,-6.28639 3.47182,0 6.28633,2.81461 6.28633,6.28639 z" id="path3138" style="fill:#000000;fill-opacity:1;fill-rule:nonzero;stroke:none" inkscape:connector-curvature="0"/>
   </a>  
   <path d="m 177.55351,617.17616 c 0,3.47175 -2.81451,6.28627 -6.28633,6.28627 -3.47181,0 -6.28632,-2.81452 -6.28632,-6.28627 0,-3.47178 2.81451,-6.28639 6.28632,-6.28639 3.47182,0 6.28633,2.81461 6.28633,6.28639 z" id="path3140" style="fill:none;stroke:#000000;stroke-width:3.14316392;stroke-linecap:square;stroke-linejoin:miter;stroke-miterlimit:10;stroke-opacity:1;stroke-dasharray:none" inkscape:connector-curvature="0"/>
<g transform="matrix(3.1431639,0,0,-3.1431639,-241.8826,345.40388)" id="g3142"><text transform="matrix(1,0,0,-1,197.08185,0)" id="text3144"><tspan x="0 2.668 3.78 5.112 7.336 9.3360004 11.336" y="0" id="tspan3146" style="font-size:3.87507632px;font-variant:normal;font-weight:normal;writing-mode:lr-tb;fill:#000000;fill-opacity:1;fill-rule:nonzero;stroke:none;font-family:Helvetica;-inkscape-font-specification:Helvetica">Strozzi</tspan></text>
</g>
   <a xlink:href="https://en.wikipedia.org/wiki/Strozzi_family">
     <path class="link" d="m 369.72005,313.97224 c 0,16.49092 -13.36895,29.86006 -29.86006,29.86006 -16.49111,0 -29.86006,-13.36914 -29.86006,-29.86006 0,-16.49089 13.36895,-29.86006 29.86006,-29.86006 16.49111,0 29.86006,13.36917 29.86006,29.86006 z" id="path3148" style="fill:#66ff00;fill-opacity:1;fill-rule:nonzero;stroke:none" inkscape:connector-curvature="0"/>
   </a>
   <path d="m 369.72005,313.97224 c 0,16.49092 -13.36895,29.86006 -29.86006,29.86006 -16.49111,0 -29.86006,-13.36914 -29.86006,-29.86006 0,-16.49089 13.36895,-29.86006 29.86006,-29.86006 16.49111,0 29.86006,13.36917 29.86006,29.86006 z" id="path3150" style="fill:none;stroke:#66ff00;stroke-width:3.14316392;stroke-linecap:square;stroke-linejoin:miter;stroke-miterlimit:10;stroke-opacity:1;stroke-dasharray:none" inkscape:connector-curvature="0"/><g transform="matrix(3.1431639,0,0,-3.1431639,-241.8826,427.78548)" id="g3152"><text transform="matrix(1,0,0,-1,233.95755,0)" id="text3154"><tspan x="0 2.888 3.776 6 8.224 9.1120005 10.224" y="0" id="tspan3156" style="font-size:4px;font-variant:normal;font-weight:normal;writing-mode:lr-tb;fill:#000000;fill-opacity:1;fill-rule:nonzero;stroke:none;font-family:Helvetica;-inkscape-font-specification:Helvetica">Ridolfi</tspan></text>
</g>
   <path d="m 485.62642,413.04803 c 0,7.27115 -5.89469,13.16587 -13.1659,13.16587 -7.27124,0 -13.16587,-5.89472 -13.16587,-13.16587 0,-7.27117 5.89463,-13.16589 13.16587,-13.16589 7.27121,0 13.1659,5.89472 13.1659,13.16589 z" id="path3158" style="fill:#348200;fill-opacity:1;fill-rule:nonzero;stroke:none" inkscape:connector-curvature="0"/><path d="m 485.62642,413.04803 c 0,7.27115 -5.89469,13.16587 -13.1659,13.16587 -7.27124,0 -13.16587,-5.89472 -13.16587,-13.16587 0,-7.27117 5.89463,-13.16589 13.16587,-13.16589 7.27121,0 13.1659,5.89472 13.1659,13.16589 z" id="path3160" style="fill:none;stroke:#348200;stroke-width:3.14316392;stroke-linecap:square;stroke-linejoin:miter;stroke-miterlimit:10;stroke-opacity:1;stroke-dasharray:none" inkscape:connector-curvature="0"/><g transform="matrix(3.1431639,0,0,-3.1431639,-247.8826,668.88458)" id="g3162"><text transform="matrix(1,0,0,-1,184.31519,0)" id="text3164"><tspan x="0 2.668 3.556 5.7800002 6.6680002 8.6680002 10.668" y="0" id="tspan3166" style="font-size:4px;font-variant:normal;font-weight:normal;writing-mode:lr-tb;fill:#000000;fill-opacity:1;fill-rule:nonzero;stroke:none;font-family:Helvetica;-inkscape-font-specification:Helvetica">Albizzi</tspan></text>
</g>
   <a xlink:href="https://en.wikipedia.org/wiki/Albizzi">
   <path class="link" d="m 329.59234,648.28679 c 0,8.29855 -6.72759,15.02621 -15.0263,15.02621 -8.29858,0 -15.02609,-6.72766 -15.02609,-15.02621 0,-8.29855 6.72751,-15.02615 15.02609,-15.02615 8.29871,0 15.0263,6.7276 15.0263,15.02615 z" id="path3168" style="fill:#59df00;fill-opacity:1;fill-rule:nonzero;stroke:none" inkscape:connector-curvature="0"/>
   </a>  
   <path d="m 329.59234,648.28679 c 0,8.29855 -6.72759,15.02621 -15.0263,15.02621 -8.29858,0 -15.02609,-6.72766 -15.02609,-15.02621 0,-8.29855 6.72751,-15.02615 15.02609,-15.02615 8.29871,0 15.0263,6.7276 15.0263,15.02615 z" id="path3170" style="fill:none;stroke:#59df00;stroke-width:3.14316392;stroke-linecap:square;stroke-linejoin:miter;stroke-miterlimit:10;stroke-opacity:1;stroke-dasharray:none" inkscape:connector-curvature="0"/><g transform="matrix(3.1431639,0,0,-3.1431639,-241.8826,670.64971)" id="g3172"><text transform="matrix(1,0,0,-1,221.77602,0)" id="text3174"><tspan x="0 3.112 4 6.224 8.448 9.7799997" y="0" id="tspan3176" style="font-size:4px;font-variant:normal;font-weight:normal;writing-mode:lr-tb;fill:#000000;fill-opacity:1;fill-rule:nonzero;stroke:none;font-family:Helvetica;-inkscape-font-specification:Helvetica">Ginori</tspan></text>
</g>
   <path d="m 447.33787,654.85163 c 0,7.85703 -6.36959,14.2265 -14.22646,14.2265 -7.85681,0 -14.22643,-6.36947 -14.22643,-14.2265 0,-7.85693 6.36962,-14.2264 14.22643,-14.2264 7.85687,0 14.22646,6.36947 14.22646,14.2264 z" id="path3178" style="fill:#000000;fill-opacity:1;fill-rule:nonzero;stroke:none" inkscape:connector-curvature="0"/><path d="m 447.33787,654.85163 c 0,7.85703 -6.36959,14.2265 -14.22646,14.2265 -7.85681,0 -14.22643,-6.36947 -14.22643,-14.2265 0,-7.85693 6.36962,-14.2264 14.22643,-14.2264 7.85687,0 14.22646,6.36947 14.22646,14.2264 z" id="path3180" style="fill:none;stroke:#000000;stroke-width:3.14316392;stroke-linecap:square;stroke-linejoin:miter;stroke-miterlimit:10;stroke-opacity:1;stroke-dasharray:none" inkscape:connector-curvature="0"/><g transform="matrix(3.1431639,0,0,-3.1431639,-241.8826,454.63674)" id="g3182"><text transform="matrix(1,0,0,-1,159.25697,0)" id="text3184"><tspan x="0 2.888 5.112 7.112 8.224 10.448 11.336 12.224 14.448 16.672001" y="0" id="tspan3186" style="font-size:4px;font-variant:normal;font-weight:normal;writing-mode:lr-tb;fill:#000000;fill-opacity:1;fill-rule:nonzero;stroke:none;font-family:Helvetica;-inkscape-font-specification:Helvetica">Castellani</tspan></text>
</g>
   <path d="m 250.83025,441.52739 c 0,6.37208 -5.1656,11.53777 -11.53774,11.53777 -6.37213,0 -11.53777,-5.16569 -11.53777,-11.53777 0,-6.37204 5.16564,-11.53773 11.53777,-11.53773 6.37214,0 11.53774,5.16569 11.53774,11.53773 z" id="path3188" style="fill:#1e4b00;fill-opacity:1;fill-rule:nonzero;stroke:none" inkscape:connector-curvature="0"/><path d="m 250.83025,441.52739 c 0,6.37208 -5.1656,11.53777 -11.53774,11.53777 -6.37213,0 -11.53777,-5.16569 -11.53777,-11.53777 0,-6.37204 5.16564,-11.53773 11.53777,-11.53773 6.37214,0 11.53774,5.16569 11.53774,11.53773 z" id="path3190" style="fill:none;stroke:#1e4b00;stroke-width:3.14316392;stroke-linecap:square;stroke-linejoin:miter;stroke-miterlimit:10;stroke-opacity:1;stroke-dasharray:none" inkscape:connector-curvature="0"/><g transform="matrix(3.1431639,0,0,-3.1431639,-277.8826,537.1355)" id="g3192"><text transform="matrix(1,0,0,-1,186.44156,0)" id="text3194"><tspan x="0 2.444 4.6680002 6 8.224 10.448 12.672 14.896 17.120001 19.344" y="0" id="tspan3196" style="font-size:4px;font-variant:normal;font-weight:normal;writing-mode:lr-tb;fill:#000000;fill-opacity:1;fill-rule:nonzero;stroke:none;font-family:Helvetica;-inkscape-font-specification:Helvetica">Tornabuoni</tspan></text>
</g>
   <path d="m 336.27587,502.34186 c 0,9.51131 -7.71059,17.22206 -17.22243,17.22206 -9.51131,0 -17.22206,-7.71075 -17.22206,-17.22206 0,-9.51153 7.71075,-17.22246 17.22206,-17.22246 9.51184,0 17.22243,7.71093 17.22243,17.22246 z" id="path3198" style="fill:#000000;fill-opacity:1;fill-rule:nonzero;stroke:none" inkscape:connector-curvature="0"/><path d="m 336.27587,502.34186 c 0,9.51131 -7.71059,17.22206 -17.22243,17.22206 -9.51131,0 -17.22206,-7.71075 -17.22206,-17.22206 0,-9.51153 7.71075,-17.22246 17.22206,-17.22246 9.51184,0 17.22243,7.71093 17.22243,17.22246 z" id="path3200" style="fill:none;stroke:#000000;stroke-width:3.14316392;stroke-linecap:square;stroke-linejoin:miter;stroke-miterlimit:10;stroke-opacity:1;stroke-dasharray:none" inkscape:connector-curvature="0"/><g transform="matrix(3.1431639,0,0,-3.1431639,-241.8826,438.43785)" id="g3202"><text transform="matrix(1,0,0,-1,201.62877,0)" id="text3204"><tspan x="0 2.668 4.8920002 6.224 8.448 10.672 12.896 15.12 16.452" y="0" id="tspan3206" style="font-size:4px;font-variant:normal;font-weight:normal;writing-mode:lr-tb;fill:#000000;fill-opacity:1;fill-rule:nonzero;stroke:none;font-family:Helvetica;-inkscape-font-specification:Helvetica">Barbadori</tspan></text>
</g>
   <path d="m 384.01176,418.47423 c 0,10.15761 -8.23449,18.39204 -18.392,18.39204 -10.15748,0 -18.39213,-8.23443 -18.39213,-18.39204 0,-10.15763 8.23465,-18.39209 18.39213,-18.39209 10.15751,0 18.392,8.23446 18.392,18.39209 z" id="path3208" style="fill:#000000;fill-opacity:1;fill-rule:nonzero;stroke:none" inkscape:connector-curvature="0"/><path d="m 384.01176,418.47423 c 0,10.15761 -8.23449,18.39204 -18.392,18.39204 -10.15748,0 -18.39213,-8.23443 -18.39213,-18.39204 0,-10.15763 8.23465,-18.39209 18.39213,-18.39209 10.15751,0 18.392,8.23446 18.392,18.39209 z" id="path3210" style="fill:none;stroke:#000000;stroke-width:3.14316392;stroke-linecap:square;stroke-linejoin:miter;stroke-miterlimit:10;stroke-opacity:1;stroke-dasharray:none" inkscape:connector-curvature="0"/><path d="m 229.5531,357.55023 c 0,9.60623 -9.66312,17.39376 -21.58307,17.39376 -11.91969,0 -21.58253,-7.78753 -21.58253,-17.39376 0,-9.60627 9.66284,-17.3938 21.58253,-17.3938 11.91995,0 21.58307,7.78753 21.58307,17.3938 z" id="path3218" style="fill:#399000;fill-opacity:1;fill-rule:nonzero;stroke:none" inkscape:connector-curvature="0"/><path d="m 229.5531,357.55023 c 0,9.60623 -9.66312,17.39376 -21.58307,17.39376 -11.91969,0 -21.58253,-7.78753 -21.58253,-17.39376 0,-9.60627 9.66284,-17.3938 21.58253,-17.3938 11.91995,0 21.58307,7.78753 21.58307,17.3938 z" id="path3220" style="fill:none;stroke:#399000;stroke-width:3.14316392;stroke-linecap:square;stroke-linejoin:miter;stroke-miterlimit:10;stroke-opacity:1;stroke-dasharray:none" inkscape:connector-curvature="0"/><g transform="matrix(3.1431639,0,0,-3.1431639,-241.8826,310.36923)" id="g3222"><text transform="matrix(1,0,0,-1,127.09792,0)" id="text3224"><tspan x="0 2.668 3.556 5.5560002 7.5560002 9.7799997 12.004 13.336" y="0" id="tspan3226" style="font-size:4px;font-variant:normal;font-weight:normal;writing-mode:lr-tb;fill:#000000;fill-opacity:1;fill-rule:nonzero;stroke:none;font-family:Helvetica;-inkscape-font-specification:Helvetica">Bischeri</tspan></text>
</g>
   <path d="m 149.74908,292.27778 c 0,9.1235 -7.39643,16.51987 -16.51955,16.51987 -9.12379,0 -16.52019,-7.39637 -16.52019,-16.51987 0,-9.12348 7.3964,-16.51988 16.52019,-16.51988 9.12312,0 16.51955,7.3964 16.51955,16.51988 z" id="path3228" style="fill:#102900;fill-opacity:1;fill-rule:nonzero;stroke:none" inkscape:connector-curvature="0"/><path d="m 149.74908,292.27778 c 0,9.1235 -7.39643,16.51987 -16.51955,16.51987 -9.12379,0 -16.52019,-7.39637 -16.52019,-16.51987 0,-9.12348 7.3964,-16.51988 16.52019,-16.51988 9.12312,0 16.51955,7.3964 16.51955,16.51988 z" id="path3230" style="fill:none;stroke:#102900;stroke-width:3.14316392;stroke-linecap:square;stroke-linejoin:miter;stroke-miterlimit:10;stroke-opacity:1;stroke-dasharray:none" inkscape:connector-curvature="0"/><g transform="matrix(3.1431639,0,0,-3.1431639,-241.8826,567.26259)" id="g3232"><text transform="matrix(1,0,0,-1,139.84297,0)" id="text3234"><tspan x="0 3.112 5.336 7.5599999 9.7840004 12.008 14.232 16.455999" y="0" id="tspan3236" style="font-size:4px;font-variant:normal;font-weight:normal;writing-mode:lr-tb;fill:#000000;fill-opacity:1;fill-rule:nonzero;stroke:none;font-family:Helvetica;-inkscape-font-specification:Helvetica">Guadagni</tspan></text>
</g>
   <path d="m 189.80887,557.56037 c 0,4.49032 -3.64023,8.13064 -8.13055,8.13064 -4.49026,0 -8.13058,-3.64032 -8.13058,-8.13064 0,-4.49026 3.64032,-8.13049 8.13058,-8.13049 4.49032,0 8.13055,3.64023 8.13055,8.13049 z" id="path3238" style="fill:#1c4800;fill-opacity:1;fill-rule:nonzero;stroke:none" inkscape:connector-curvature="0"/><path d="m 189.80887,557.56037 c 0,4.49032 -3.64023,8.13064 -8.13055,8.13064 -4.49026,0 -8.13058,-3.64032 -8.13058,-8.13064 0,-4.49026 3.64032,-8.13049 8.13058,-8.13049 4.49032,0 8.13055,3.64023 8.13055,8.13049 z" id="path3240" style="fill:none;stroke:#1c4800;stroke-width:3.14316392;stroke-linecap:square;stroke-linejoin:miter;stroke-miterlimit:10;stroke-opacity:1;stroke-dasharray:none" inkscape:connector-curvature="0"/><path d="m 53.441788,416.83174 c 0,8.92373 -7.2344,16.15829 -16.157937,16.15829 -8.923945,0 -16.158566,-7.23456 -16.158566,-16.15829 0,-8.92375 7.234621,-16.15825 16.158566,-16.15825 8.923537,0 16.157937,7.2345 16.157937,16.15825 z" id="path3248" style="fill:#000000;fill-opacity:1;fill-rule:nonzero;stroke:none" inkscape:connector-curvature="0"/><path d="m 53.441788,416.83174 c 0,8.92373 -7.2344,16.15829 -16.157937,16.15829 -8.923945,0 -16.158566,-7.23456 -16.158566,-16.15829 0,-8.92375 7.234621,-16.15825 16.158566,-16.15825 8.923537,0 16.157937,7.2345 16.157937,16.15825 z" id="path3250" style="fill:none;stroke:#000000;stroke-width:3.14316392;stroke-linecap:square;stroke-linejoin:miter;stroke-miterlimit:10;stroke-opacity:1;stroke-dasharray:none" inkscape:connector-curvature="0"/><g transform="matrix(3.1431639,0,0,-3.1431639,-241.8826,362.51557)" id="g3212"><text transform="matrix(1,0,0,-1,152.48763,0)" id="text3214"><tspan x="0 2.668 4.8920002 6.224 8.448 10.448 12.448" y="0" id="tspan3216" style="font-size:4px;font-variant:normal;font-weight:normal;writing-mode:lr-tb;fill:#000000;fill-opacity:1;fill-rule:nonzero;stroke:none;font-family:Helvetica;-inkscape-font-specification:Helvetica">Peruzzi</tspan></text>
</g>
   <g transform="matrix(3.1431639,0,0,-3.1431639,-257.8826,448.56161)" id="g3242"><text transform="matrix(1,0,0,-1,96.45768,0)" id="text3244"><tspan x="0 2.224 4.448 7.7800002 10.004 12.228 13.56 14.672 16.896 18.896 20.896 23.120001" y="0" id="tspan3246" style="font-size:4px;font-variant:normal;font-weight:normal;writing-mode:lr-tb;fill:#000000;fill-opacity:1;fill-rule:nonzero;stroke:none;font-family:Helvetica;-inkscape-font-specification:Helvetica">Lamberteschi</tspan></text>
</g>
<text xml:space="preserve" style="font-size:40px;font-style:normal;font-weight:normal;line-height:125%;letter-spacing:0px;word-spacing:0px;fill:#000000;fill-opacity:1;stroke:none;font-family:Sans" x="799.54901" y="519.32306" id="text4694" sodipodi:linespacing="125%"><tspan sodipodi:role="line" id="tspan4696" x="799.54901" y="519.32306" style="font-size:20px;fill:#666666">Wealth (Thousands of Lira)</tspan></text>
<text xml:space="preserve" style="font-size:40px;font-style:normal;font-weight:normal;line-height:125%;letter-spacing:0px;word-spacing:0px;fill:#000000;fill-opacity:1;stroke:none;font-family:Sans" x="799.35931" y="639.11096" id="text4698" sodipodi:linespacing="125%"><tspan sodipodi:role="line" id="tspan4700" x="799.35931" y="639.11096" dx="0 0 0 0 1.0474046 0 0 0 0 0 0 0 1.0474046" style="font-size:20px;fill:#666666">Number of Government Seats (Priorates)</tspan></text>
<text xml:space="preserve" style="font-size:40px;font-style:normal;font-weight:normal;line-height:125%;letter-spacing:0px;word-spacing:0px;fill:#000000;fill-opacity:1;stroke:none;font-family:Sans" x="1228.0322" y="489.23282" id="text4704" sodipodi:linespacing="125%"><tspan sodipodi:role="line" id="tspan4706" x="1228.0322" y="489.23282" style="font-size:28px">Edge Color</tspan></text>
<text xml:space="preserve" style="font-size:40px;font-style:normal;font-weight:normal;line-height:125%;letter-spacing:0px;word-spacing:0px;fill:#000000;fill-opacity:1;stroke:none;font-family:Sans" x="1229.2853" y="543.31793" id="text4694-2" sodipodi:linespacing="125%"><tspan sodipodi:role="line" id="tspan4696-9" x="1229.2853" y="543.31793" style="font-size:18px;fill:#000000">Marriage</tspan></text>
<text xml:space="preserve" style="font-size:40px;font-style:normal;font-weight:normal;line-height:125%;letter-spacing:0px;word-spacing:0px;fill:#000000;fill-opacity:1;stroke:none;font-family:Sans" x="1229.2853" y="603.01996" id="text4694-7" sodipodi:linespacing="125%"><tspan sodipodi:role="line" id="tspan4696-4" x="1229.2853" y="603.01996" style="font-size:18px;fill:#000000">Both</tspan></text>
<text xml:space="preserve" style="font-size:40px;font-style:normal;font-weight:normal;line-height:125%;letter-spacing:0px;word-spacing:0px;fill:#000000;fill-opacity:1;stroke:none;font-family:Sans" x="1229.0009" y="571.69269" id="text4694-1" sodipodi:linespacing="125%"><tspan sodipodi:role="line" id="tspan4696-3" x="1229.0009" y="571.69269" style="font-size:18px;fill:#000000">Business</tspan></text>
<path d="m 861.87859,561.4089 c 0,16.49092 -13.36895,29.86006 -29.86006,29.86006 -16.49111,0 -29.86006,-13.36914 -29.86006,-29.86006 0,-16.49089 13.36895,-29.86006 29.86006,-29.86006 16.49111,0 29.86006,13.36917 29.86006,29.86006 z" id="path3150-4" style="fill:none;stroke:#000000;stroke-width:3.14316392;stroke-linecap:square;stroke-linejoin:miter;stroke-miterlimit:10;stroke-opacity:1;stroke-dasharray:none" inkscape:connector-curvature="0"/><path d="m 837.25746,582.07713 c 0,3.47175 -2.81451,6.28627 -6.28633,6.28627 -3.47181,0 -6.28632,-2.81452 -6.28632,-6.28627 0,-3.47178 2.81451,-6.28639 6.28632,-6.28639 3.47182,0 6.28633,2.81461 6.28633,6.28639 z" id="path3140-9" style="fill:none;stroke:#000000;stroke-width:3.14316392;stroke-linecap:square;stroke-linejoin:miter;stroke-miterlimit:10;stroke-opacity:1;stroke-dasharray:none" inkscape:connector-curvature="0"/><path d="m 844.32664,577.13349 c 0,7.27115 -5.89469,13.16587 -13.1659,13.16587 -7.27124,0 -13.16587,-5.89472 -13.16587,-13.16587 0,-7.27117 5.89463,-13.16589 13.16587,-13.16589 7.27121,0 13.1659,5.89472 13.1659,13.16589 z" id="path3160-8" style="fill:none;stroke:#000000;stroke-width:3.14316392;stroke-linecap:square;stroke-linejoin:miter;stroke-miterlimit:10;stroke-opacity:1;stroke-dasharray:none" inkscape:connector-curvature="0" inkscape:transform-center-y="-14.737462"/><text xml:space="preserve" style="font-size:40px;font-style:normal;font-weight:normal;line-height:125%;letter-spacing:0px;word-spacing:0px;fill:#000000;fill-opacity:1;stroke:none;font-family:Sans" x="869.34589" y="542.08154" id="text5587" sodipodi:linespacing="125%"><tspan sodipodi:role="line" id="tspan5589" x="869.34589" y="542.08154" style="font-size:18px">146</tspan></text>
<text xml:space="preserve" style="font-size:40px;font-style:normal;font-weight:normal;line-height:125%;letter-spacing:0px;word-spacing:0px;fill:#000000;fill-opacity:1;stroke:none;font-family:Sans" x="871.81995" y="565.88293" id="text5591" sodipodi:linespacing="125%"><tspan sodipodi:role="line" id="tspan5593" x="871.81995" y="565.88293" style="font-size:18px">27</tspan></text>
<text xml:space="preserve" style="font-size:40px;font-style:normal;font-weight:normal;line-height:125%;letter-spacing:0px;word-spacing:0px;fill:#000000;fill-opacity:1;stroke:none;font-family:Sans" x="871.81995" y="588.92584" id="text5595" sodipodi:linespacing="125%"><tspan sodipodi:role="line" id="tspan5597" x="871.81995" y="588.92584" style="font-size:18px">3</tspan></text>
<flowRoot xml:space="preserve" id="flowRoot5599" style="fill:black;stroke:none;stroke-opacity:1;stroke-width:1px;stroke-linejoin:miter;stroke-linecap:butt;fill-opacity:1;font-family:Sans;font-style:normal;font-weight:normal;font-size:40px;line-height:125%;letter-spacing:0px;word-spacing:0px"><flowRegion id="flowRegion5601"><rect id="rect5603" width="3.1422141" height="78.555351" x="830.59192" y="482.85355"/></flowRegion><flowPara id="flowPara5605"/></flowRoot><rect style="fill:url('#linearGradient5615');fill-opacity:1;stroke:#000000;stroke-width:1.00722218;stroke-opacity:1" id="rect5607" width="289.07648" height="39.794155" x="801.64746" y="649.0152"/><text xml:space="preserve" style="font-size:40px;font-style:normal;font-weight:normal;line-height:125%;letter-spacing:0px;word-spacing:0px;fill:#000000;fill-opacity:1;stroke:none;font-family:Sans" x="798.50159" y="708.80847" id="text5617" sodipodi:linespacing="125%"><tspan sodipodi:role="line" id="tspan5619" x="798.50159" y="708.80847" style="font-size:18px">0</tspan></text>
<text xml:space="preserve" style="font-size:40px;font-style:normal;font-weight:normal;line-height:125%;letter-spacing:0px;word-spacing:0px;fill:#000000;fill-opacity:1;stroke:none;font-family:Sans" x="1069.6846" y="708.80853" id="text5621" sodipodi:linespacing="125%"><tspan sodipodi:role="line" id="tspan5623" x="1069.6846" y="708.80853" style="font-size:18px">74</tspan></text>
<rect style="fill:#c0c0c0;fill-opacity:1;stroke:#000000;stroke-width:0.48926961;stroke-opacity:1" id="rect5607-3" width="148.19479" height="18.316608" x="1320.4226" y="530.40405"/><rect style="fill:#d5001f;fill-opacity:1;stroke:#000000;stroke-width:0.48926961;stroke-opacity:1" id="rect5607-3-5" width="148.19479" height="18.316608" x="1320.8516" y="589.5824"/><rect style="fill:#1e1eff;fill-opacity:1;stroke:#000000;stroke-width:0.48926961;stroke-opacity:1" id="rect5607-3-8" width="148.19479" height="18.316608" x="1320.9464" y="560.16022"/><text xml:space="preserve" style="font-size:40px;font-style:normal;font-weight:normal;line-height:125%;letter-spacing:0px;word-spacing:0px;fill:#000000;fill-opacity:1;stroke:none;font-family:Sans" x="1228.2378" y="519.31799" id="text4694-0" sodipodi:linespacing="125%"><tspan sodipodi:role="line" id="tspan4696-2" x="1228.2378" y="519.31799" style="font-size:20px;fill:#666666">Relationship Type</tspan></text>
<text xml:space="preserve" style="font-size:40px;font-style:normal;font-weight:normal;line-height:125%;letter-spacing:0px;word-spacing:0px;fill:#000000;fill-opacity:1;stroke:none;font-family:Sans" x="1169.951" y="793.93274" id="text5733" sodipodi:linespacing="125%"><tspan sodipodi:role="line" id="tspan5735"/></text>
<text xml:space="preserve" style="font-size:40px;font-style:normal;font-weight:normal;line-height:125%;letter-spacing:0px;word-spacing:0px;fill:#000000;fill-opacity:1;stroke:none;font-family:Sans" x="798.3927" y="488.77948" id="text4704-1" sodipodi:linespacing="125%"><tspan sodipodi:role="line" id="tspan4706-0" x="798.3927" y="488.77948" style="font-size:28px">Node Size and Color</tspan></text>
</svg>